<svg id="svg" version="1.1" xmlns="http://www.w3.org/2000/svg" xmlns:xlink="http://www.w3.org/1999/xlink" width="400" height="506.97084917617235" viewBox="0, 0, 400,506.97084917617235"><g id="svgg"><path id="path0" d="M139.978 77.125 C 138.805 77.501,136.895 79.260,136.344 80.472 C 135.724 81.838,135.607 111.939,136.217 113.398 C 137.456 116.364,139.211 117.208,144.370 117.318 L 148.436 117.406 152.988 124.334 C 155.492 128.144,157.573 131.230,157.612 131.191 C 157.652 131.152,158.293 128.054,159.037 124.306 L 160.391 117.490 184.822 117.364 C 212.193 117.222,210.118 117.370,211.962 115.422 C 213.728 113.558,213.677 114.101,213.677 97.085 C 213.677 78.865,213.734 79.169,210.013 77.410 L 208.745 76.811 174.778 76.834 C 151.761 76.850,140.543 76.944,139.978 77.125 M202.788 88.086 L 202.788 89.734 174.778 89.734 L 146.768 89.734 146.768 88.086 L 146.768 86.439 174.778 86.439 L 202.788 86.439 202.788 88.086 M202.788 96.578 L 202.788 98.352 174.778 98.352 L 146.768 98.352 146.768 96.578 L 146.768 94.804 174.778 94.804 L 202.788 94.804 202.788 96.578 M202.788 105.070 L 202.788 106.717 174.778 106.717 L 146.768 106.717 146.768 105.070 L 146.768 103.422 174.778 103.422 L 202.788 103.422 202.788 105.070 M93.916 137.547 C 66.735 141.678,55.411 172.954,73.958 192.671 C 82.888 202.165,94.945 205.030,108.903 200.977 C 109.933 200.677,110.057 200.718,118.345 204.105 C 122.964 205.992,126.743 207.502,126.743 207.460 C 126.743 207.418,125.659 204.073,124.335 200.026 C 121.490 191.336,121.619 192.664,123.406 190.432 C 137.285 173.102,129.771 146.897,108.745 139.301 C 104.715 137.845,97.539 136.996,93.916 137.547 M84.842 167.797 C 85.897 168.440,86.439 169.523,86.439 170.988 C 86.439 175.623,79.635 175.887,79.167 171.270 C 78.869 168.334,82.290 166.241,84.842 167.797 M99.863 167.964 C 102.657 170.315,101.266 174.650,97.719 174.650 C 94.077 174.650,92.670 169.797,95.727 167.781 C 96.855 167.038,98.867 167.127,99.863 167.964 M114.498 167.796 C 117.633 169.708,116.226 174.651,112.548 174.651 C 109.675 174.651,107.863 171.297,109.437 168.895 C 110.458 167.336,112.881 166.810,114.498 167.796 M195.944 207.319 C 195.944 207.983,198.354 210.097,199.314 210.275 C 200.612 210.516,202.179 209.892,203.389 208.653 L 204.342 207.677 202.107 207.511 C 200.879 207.419,198.989 207.274,197.909 207.188 C 196.523 207.078,195.944 207.117,195.944 207.319 M204.563 324.845 C 204.563 324.917,205.305 326.457,206.212 328.267 L 207.862 331.559 217.190 331.559 C 228.104 331.559,227.118 331.860,228.008 328.264 C 228.371 326.800,228.727 325.402,228.800 325.158 C 228.924 324.740,228.233 324.715,216.747 324.715 C 210.046 324.715,204.563 324.773,204.563 324.845 M62.729 341.800 C 62.242 342.157,62.251 342.203,63.160 343.896 C 65.270 347.828,65.450 351.473,63.777 356.461 C 61.982 361.813,63.085 365.354,66.732 365.945 C 67.654 366.095,68.508 365.084,67.690 364.811 C 66.936 364.560,65.635 363.117,65.373 362.243 C 65.060 361.199,65.142 360.840,66.660 356.591 C 68.568 351.248,67.629 345.880,64.174 342.391 C 63.308 341.517,63.185 341.467,62.729 341.800 M49.001 343.569 C 45.789 351.452,47.623 359.048,54.609 366.793 C 58.777 371.415,59.317 374.050,56.779 377.386 C 54.866 379.902,56.152 380.402,58.451 378.037 C 61.764 374.628,61.233 370.264,56.883 365.146 C 50.527 357.667,48.604 351.671,50.314 344.660 C 50.732 342.946,50.748 342.646,50.431 342.445 C 49.769 342.027,49.564 342.189,49.001 343.569 M163.752 355.151 C 163.124 355.276,161.926 355.713,161.090 356.123 L 159.569 356.866 153.359 357.020 C 133.417 357.513,121.934 359.793,117.346 364.170 C 109.269 371.873,116.156 383.523,128.786 383.523 C 134.890 383.523,144.627 380.961,156.810 376.149 C 162.401 373.940,162.886 373.839,169.539 373.493 C 172.488 373.339,172.902 373.264,172.792 372.907 C 172.722 372.681,172.074 371.071,171.351 369.328 C 170.628 367.586,169.202 363.650,168.182 360.583 C 166.095 354.308,166.358 354.631,163.752 355.151 M217.326 408.353 C 212.891 408.865,208.991 409.963,205.133 411.787 C 202.347 413.104,202.425 412.504,204.399 417.413 C 210.046 431.458,209.709 435.316,202.535 438.758 L 200.634 439.670 193.916 439.824 C 184.420 440.041,180.488 441.024,177.482 443.931 C 169.491 451.661,183.395 463.884,198.015 461.982 C 202.954 461.339,217.919 458.202,222.219 456.908 C 223.077 456.650,223.830 456.659,226.275 456.957 C 236.963 458.257,244.170 455.181,244.170 449.317 C 244.170 446.806,242.041 442.371,237.654 435.741 L 235.725 432.826 235.475 429.531 C 235.337 427.719,235.119 425.722,234.992 425.095 C 234.864 424.468,234.693 423.327,234.612 422.560 C 234.531 421.793,234.110 418.588,233.676 415.438 L 232.888 409.710 231.083 409.296 C 226.911 408.338,220.975 407.932,217.326 408.353 " stroke="none" fill="#eceffb" fill-rule="evenodd"></path><path id="path1" d="M139.922 76.027 C 137.935 76.637,136.354 78.031,135.452 79.969 L 134.859 81.242 134.862 97.085 C 134.866 115.021,134.760 114.048,136.951 116.289 C 138.600 117.976,139.995 118.378,144.203 118.378 L 147.703 118.378 152.859 126.120 C 156.037 130.892,158.080 133.737,158.185 133.535 C 158.278 133.354,159.014 129.870,159.821 125.792 L 161.289 118.378 185.035 118.378 C 212.106 118.378,210.284 118.520,212.570 116.234 C 214.807 113.997,214.728 114.748,214.646 96.554 C 214.580 81.696,214.547 80.681,214.104 79.848 C 213.447 78.612,211.975 77.119,210.773 76.468 L 209.759 75.919 175.158 75.875 C 156.128 75.852,140.272 75.920,139.922 76.027 M210.793 77.702 C 211.634 78.221,212.309 78.920,212.864 79.846 L 213.688 81.220 213.683 96.947 C 213.676 114.492,213.751 113.713,211.894 115.570 C 209.990 117.474,211.842 117.352,184.748 117.358 L 160.497 117.364 160.359 118.061 C 160.284 118.444,159.688 121.496,159.035 124.842 C 158.382 128.188,157.770 131.014,157.675 131.122 C 157.580 131.231,155.416 128.187,152.867 124.358 L 148.233 117.397 144.121 117.317 C 138.703 117.212,136.772 116.111,135.885 112.625 C 135.429 110.832,135.521 82.790,135.988 81.225 C 136.464 79.627,137.628 78.224,139.125 77.442 L 140.304 76.827 174.925 76.880 L 209.546 76.933 210.793 77.702 M146.768 88.086 L 146.768 89.734 174.778 89.734 L 202.788 89.734 202.788 88.086 L 202.788 86.439 174.778 86.439 L 146.768 86.439 146.768 88.086 M146.768 96.578 L 146.768 98.099 174.778 98.099 L 202.788 98.099 202.788 96.578 L 202.788 95.057 174.778 95.057 L 146.768 95.057 146.768 96.578 M146.768 105.070 L 146.768 106.717 174.778 106.717 L 202.788 106.717 202.788 105.070 L 202.788 103.422 174.778 103.422 L 146.768 103.422 146.768 105.070 M92.269 136.733 C 73.042 140.134,60.567 158.379,64.609 177.186 C 68.823 196.799,88.946 208.394,108.219 202.314 L 109.847 201.800 119.104 205.584 C 124.195 207.664,128.389 209.338,128.424 209.303 C 128.459 209.268,127.284 205.550,125.814 201.041 C 123.570 194.162,123.186 192.756,123.427 192.302 C 123.585 192.005,124.397 190.849,125.230 189.734 C 133.659 178.449,133.513 161.616,124.884 149.968 C 117.524 140.032,104.194 134.623,92.269 136.733 M103.434 137.798 C 127.948 142.009,138.908 171.564,123.131 190.911 L 121.964 192.342 124.449 199.974 C 125.815 204.171,126.864 207.605,126.779 207.605 C 126.695 207.605,122.848 206.060,118.231 204.172 L 109.837 200.740 107.891 201.375 C 89.949 207.232,70.578 196.604,65.882 178.327 C 59.964 155.294,79.918 133.759,103.434 137.798 M190.621 157.062 C 188.750 157.556,187.862 157.665,186.637 157.550 C 175.912 156.543,169.499 168.203,173.137 182.092 C 174.351 186.728,175.071 188.233,176.242 188.584 C 177.481 188.955,178.212 189.486,179.208 190.741 L 179.929 191.648 181.185 189.020 C 182.974 185.275,184.755 182.746,187.605 179.905 L 190.091 177.428 192.191 179.615 C 201.591 189.406,212.430 190.643,219.854 182.773 C 227.079 175.114,222.719 163.926,212.757 164.561 L 211.126 164.665 209.984 163.064 C 205.926 157.378,198.333 155.024,190.621 157.062 M81.111 167.773 C 77.841 169.521,79.167 174.561,82.884 174.507 C 86.580 174.452,87.787 169.747,84.603 167.806 C 83.566 167.174,82.255 167.161,81.111 167.773 M96.089 167.744 C 91.881 169.890,94.902 176.089,99.223 174.178 C 102.695 172.642,101.526 167.301,97.719 167.301 C 97.300 167.301,96.567 167.501,96.089 167.744 M110.877 167.780 C 109.597 168.561,108.999 169.512,108.999 170.769 C 108.999 175.531,115.649 175.985,116.042 171.250 C 116.289 168.266,113.335 166.281,110.877 167.780 M193.283 189.970 C 191.101 191.035,191.175 191.627,193.397 190.879 C 195.279 190.245,196.231 190.365,197.855 191.441 C 199.134 192.288,199.528 192.240,198.835 191.321 C 197.648 189.747,195.040 189.113,193.283 189.970 M205.773 190.763 C 205.061 191.149,204.410 192.073,204.667 192.331 C 204.748 192.411,205.013 192.302,205.258 192.088 C 206.516 190.989,208.689 190.961,210.254 192.023 C 211.197 192.663,211.531 192.594,211.128 191.842 C 210.410 190.499,207.383 189.889,205.773 190.763 M194.735 192.819 C 194.558 192.890,194.244 193.274,194.038 193.673 C 192.951 195.774,194.790 197.803,196.179 196.037 C 197.380 194.510,196.332 192.176,194.735 192.819 M206.620 193.810 C 205.914 194.708,205.903 196.209,206.598 196.838 C 207.870 197.989,209.664 195.746,208.845 194.030 C 208.351 192.995,207.340 192.895,206.620 193.810 M172.717 301.665 C 161.621 302.683,151.193 309.382,146.899 318.251 C 142.115 328.134,142.076 343.996,146.809 354.813 L 147.834 357.154 153.702 357.010 C 159.546 356.866,159.575 356.863,161.090 356.121 C 162.656 355.355,165.441 354.695,166.078 354.940 C 166.276 355.016,166.819 356.317,167.286 357.830 C 168.500 361.769,170.976 368.525,172.292 371.483 C 172.911 372.877,173.997 375.501,174.703 377.313 C 179.485 389.582,186.535 406.753,191.161 417.400 L 192.939 421.492 198.307 421.430 C 201.260 421.396,204.147 421.282,204.723 421.176 L 205.770 420.984 204.815 418.540 C 204.289 417.196,203.565 415.436,203.207 414.629 L 202.554 413.162 203.368 412.666 C 210.085 408.570,221.352 407.103,230.525 409.130 C 233.286 409.740,233.064 410.164,232.329 405.684 C 230.732 395.957,227.479 383.003,223.478 370.437 L 223.307 369.899 234.530 369.759 C 264.292 369.388,282.267 364.676,293.086 354.411 C 307.310 340.914,305.255 316.709,289.607 313.435 C 278.991 311.213,253.067 319.313,214.223 336.988 C 212.496 337.774,211.052 338.385,211.015 338.347 C 210.977 338.308,209.959 336.166,208.751 333.587 C 196.513 307.441,188.370 300.228,172.717 301.665 M47.242 384.221 C 47.315 384.604,47.444 386.001,47.529 387.326 C 47.613 388.650,47.739 390.036,47.810 390.406 C 47.927 391.022,47.854 391.093,46.936 391.248 C 41.246 392.209,37.704 398.575,39.748 404.165 C 41.362 408.578,45.480 412.820,48.859 413.550 C 49.312 413.648,49.691 413.862,49.701 414.025 C 49.711 414.188,49.800 415.206,49.898 416.286 L 50.077 418.249 49.310 418.371 C 48.888 418.439,47.630 418.617,46.515 418.769 C 38.056 419.917,34.624 422.465,38.954 424.380 C 47.878 428.328,78.898 427.933,84.705 423.798 C 87.375 421.897,82.677 419.387,74.994 418.610 C 74.068 418.516,73.182 418.361,73.027 418.265 C 72.824 418.140,73.210 413.391,74.395 401.436 C 75.303 392.276,76.046 384.498,76.046 384.152 L 76.046 383.523 61.577 383.523 L 47.108 383.523 47.242 384.221 M48.167 395.120 C 48.170 395.364,48.450 398.811,48.790 402.779 C 49.495 411.025,49.539 410.228,48.411 409.682 C 44.108 407.598,41.400 400.946,43.482 397.572 C 44.690 395.614,48.152 393.802,48.167 395.120 M310.520 416.129 C 298.012 421.082,283.966 423.031,255.006 423.830 C 249.639 423.978,243.194 424.210,240.684 424.344 C 238.175 424.478,235.855 424.588,235.529 424.588 C 234.987 424.588,234.949 424.669,235.085 425.539 C 235.167 426.061,235.348 427.960,235.488 429.759 C 235.628 431.571,235.879 433.193,236.049 433.399 C 236.614 434.080,271.209 433.265,293.029 432.056 C 353.760 428.693,367.854 420.893,322.286 415.864 C 312.892 414.828,313.860 414.806,310.520 416.129 M128.644 417.188 C 126.728 417.382,118.958 419.071,116.822 419.758 C 101.614 424.644,125.377 429.931,173.257 432.313 C 179.429 432.620,193.490 433.200,194.881 433.205 C 195.500 433.208,196.525 435.964,196.654 437.971 L 196.775 439.848 198.704 439.757 C 202.059 439.600,206.090 437.172,207.778 434.290 C 208.589 432.907,208.647 431.109,207.972 428.244 L 207.526 426.350 205.221 426.546 C 200.503 426.948,173.437 426.759,167.554 426.284 C 150.858 424.934,142.762 423.142,132.573 418.541 C 130.470 417.592,129.148 417.136,128.644 417.188 M175.412 456.185 C 165.771 457.647,164.036 459.127,167.935 462.559 C 173.854 467.769,194.385 467.013,221.832 460.575 L 226.047 459.586 232.519 459.840 C 241.807 460.204,246.895 459.794,246.895 458.679 C 246.895 457.421,239.354 456.009,236.481 456.730 C 234.609 457.200,227.473 457.280,225.042 456.858 C 223.706 456.627,223.163 456.711,217.945 457.966 C 203.120 461.532,195.648 462.685,191.640 462.027 C 187.215 461.301,183.256 459.664,180.025 457.226 C 178.379 455.984,177.719 455.836,175.412 456.185 " stroke="none" fill="#003399" fill-rule="evenodd"></path><path id="path2" d="M192.385 180.038 C 193.006 180.700,193.548 181.242,193.589 181.242 C 193.779 181.242,193.578 181.014,192.459 179.964 L 191.255 178.834 192.385 180.038 M206.654 188.007 C 206.898 188.071,207.297 188.071,207.541 188.007 C 207.785 187.944,207.586 187.892,207.098 187.892 C 206.610 187.892,206.410 187.944,206.654 188.007 M194.870 189.533 C 195.185 189.594,195.641 189.591,195.884 189.528 C 196.126 189.464,195.868 189.415,195.311 189.418 C 194.753 189.420,194.555 189.472,194.870 189.533 M207.288 190.293 C 207.601 190.353,208.115 190.353,208.428 190.293 C 208.742 190.233,208.485 190.183,207.858 190.183 C 207.231 190.183,206.974 190.233,207.288 190.293 M174.588 191.136 C 174.103 191.432,173.380 192.683,173.391 193.207 C 173.395 193.388,173.717 193.151,174.107 192.681 C 175.390 191.134,177.187 191.944,178.513 194.666 C 179.208 196.092,179.473 195.427,178.855 193.809 C 178.072 191.759,175.848 190.366,174.588 191.136 M73.764 192.728 C 73.764 192.772,74.135 193.143,74.588 193.552 L 75.412 194.297 74.667 193.473 C 73.973 192.705,73.764 192.532,73.764 192.728 M201.451 197.180 C 201.080 198.909,201.232 199.885,202.028 200.887 C 203.344 202.544,202.686 204.713,201.026 204.186 C 200.422 203.995,200.312 204.434,200.908 204.662 C 203.336 205.594,204.664 202.377,202.708 200.299 C 202.339 199.907,202.068 199.146,201.895 198.018 C 201.654 196.447,201.621 196.387,201.451 197.180 M186.158 211.355 C 188.976 216.804,195.834 222.287,200.444 222.776 L 202.281 222.970 202.281 219.440 L 202.281 215.910 201.711 216.088 C 197.835 217.298,191.848 215.591,187.505 212.038 C 186.028 210.830,185.836 210.733,186.158 211.355 M207.087 236.648 C 199.349 244.592,188.265 245.145,177.385 238.128 C 175.224 236.734,174.883 237.127,176.939 238.641 C 186.045 245.345,196.203 246.134,203.671 240.718 C 205.077 239.699,208.280 236.620,208.651 235.932 C 209.118 235.065,208.235 235.469,207.087 236.648 M226.616 245.990 C 226.616 247.726,232.261 280.217,234.886 293.590 C 235.557 297.004,235.995 297.849,235.995 295.726 C 235.995 293.255,229.777 258.277,227.370 247.212 C 227.147 246.186,226.616 245.326,226.616 245.990 M156.563 252.414 C 156.079 253.197,152.095 274.609,150.429 285.381 C 149.815 289.350,149.282 292.615,149.244 292.636 C 149.207 292.658,147.978 292.937,146.515 293.256 C 142.952 294.032,138.088 295.621,137.944 296.055 C 137.859 296.310,137.957 296.353,138.305 296.212 C 141.686 294.845,149.253 293.574,151.394 294.014 C 154.610 294.675,161.643 297.699,167.231 300.824 C 169.167 301.907,169.598 302.054,170.562 301.955 L 171.669 301.842 169.295 300.438 C 163.008 296.722,153.481 292.776,150.795 292.776 C 150.393 292.776,150.063 292.720,150.063 292.652 C 150.063 292.585,150.634 289.717,151.332 286.279 C 154.039 272.948,157.414 252.218,156.878 252.218 C 156.771 252.218,156.629 252.306,156.563 252.414 M315.613 283.333 C 315.096 285.299,313.815 290.469,313.815 290.587 C 313.815 290.655,314.540 290.332,315.426 289.871 C 318.203 288.423,320.913 288.430,320.913 289.885 C 320.913 290.421,319.991 291.453,316.330 295.019 L 311.748 299.482 312.338 299.946 C 315.840 302.698,316.933 305.084,315.568 307.001 L 315.039 307.743 315.571 308.644 C 317.943 312.665,315.928 314.128,304.943 316.359 C 300.560 317.250,300.634 317.246,300.634 316.595 C 300.634 314.714,302.638 312.435,304.642 312.038 C 308.946 311.186,314.829 309.115,314.829 308.452 C 314.829 308.105,314.389 308.204,313.504 308.750 C 311.724 309.849,300.706 312.704,300.200 312.198 C 298.838 310.836,303.514 307.126,308.041 305.976 C 309.735 305.546,309.905 305.443,310.114 304.714 C 310.412 303.675,310.365 303.644,307.920 303.263 C 288.419 300.226,261.384 308.314,231.443 326.141 L 228.260 328.037 227.834 329.476 C 227.290 331.316,226.815 331.364,232.470 329.007 C 276.120 310.817,292.691 308.752,299.658 320.633 C 300.168 321.501,300.648 322.108,300.727 321.981 C 300.806 321.854,302.385 321.682,304.237 321.599 C 306.292 321.507,308.346 321.255,309.506 320.953 C 311.726 320.375,311.702 320.366,311.323 321.631 C 310.510 324.342,308.565 325.595,304.476 326.039 C 302.550 326.248,301.912 326.405,302.005 326.647 C 303.476 330.480,302.284 340.139,299.668 345.586 C 291.960 361.635,271.305 369.300,234.530 369.759 L 223.307 369.899 223.478 370.437 C 227.743 383.833,230.769 396.076,232.569 407.224 C 233.299 411.744,233.696 414.555,234.871 423.511 C 234.988 424.407,235.105 424.588,235.567 424.588 C 235.872 424.588,238.175 424.478,240.684 424.344 C 243.194 424.210,249.639 423.978,255.006 423.830 C 288.359 422.910,303.804 420.220,317.871 412.884 C 356.007 392.996,372.272 334.991,348.603 303.284 C 341.686 294.018,332.105 287.402,319.846 283.427 C 315.903 282.149,315.924 282.149,315.613 283.333 M173.701 301.569 C 173.945 301.633,174.344 301.633,174.588 301.569 C 174.832 301.505,174.632 301.453,174.144 301.453 C 173.657 301.453,173.457 301.505,173.701 301.569 M125.184 306.121 C 104.164 322.852,95.493 351.055,102.516 379.848 C 109.859 409.947,128.319 423.170,167.300 426.254 C 176.489 426.981,206.564 426.981,207.291 426.254 C 207.386 426.158,207.076 424.935,206.602 423.535 L 205.741 420.989 204.708 421.178 C 204.140 421.283,201.260 421.396,198.307 421.430 L 192.939 421.492 191.161 417.400 C 186.418 406.484,178.509 387.191,174.377 376.459 C 173.039 372.983,173.712 373.252,167.493 373.711 C 161.898 374.124,162.455 373.984,155.640 376.679 C 141.148 382.411,130.322 384.659,124.335 383.181 C 114.304 380.703,110.532 370.810,117.107 364.223 C 120.794 360.530,129.163 358.337,143.168 357.395 C 146.329 357.182,147.768 356.994,147.688 356.805 C 147.623 356.652,147.169 355.615,146.679 354.499 C 142.102 344.081,142.185 327.932,146.863 318.297 C 147.310 317.378,147.624 316.677,147.561 316.739 C 147.073 317.228,129.930 306.877,128.283 305.099 C 127.478 304.230,127.616 304.184,125.184 306.121 M193.663 308.619 C 194.420 309.385,195.097 310.013,195.166 310.013 C 195.236 310.013,194.674 309.385,193.916 308.619 C 193.159 307.852,192.482 307.224,192.413 307.224 C 192.343 307.224,192.906 307.852,193.663 308.619 M205.957 311.445 C 204.739 311.630,200.545 312.793,199.232 313.311 C 198.570 313.572,197.931 313.707,197.812 313.610 C 197.694 313.514,197.783 313.663,198.010 313.942 C 198.686 314.770,201.594 319.586,203.023 322.243 L 204.353 324.715 214.217 324.715 C 219.642 324.715,224.081 324.662,224.081 324.597 C 224.081 324.189,219.668 319.111,217.533 317.062 C 212.772 312.491,209.505 310.906,205.957 311.445 M315.180 315.087 C 315.607 317.757,314.686 318.806,310.848 320.015 C 307.910 320.941,301.394 321.725,301.394 321.153 C 301.394 319.895,303.720 317.244,305.131 316.895 C 305.655 316.765,307.395 316.350,308.999 315.972 C 310.602 315.594,312.541 315.021,313.308 314.699 C 314.075 314.376,314.773 314.103,314.860 314.091 C 314.947 314.078,315.091 314.527,315.180 315.087 " stroke="none" fill="#00bc65" fill-rule="evenodd"></path><path id="path3" d="M175.792 216.749 C 166.440 218.546,155.972 221.639,146.515 225.399 C 137.428 229.013,134.480 232.345,132.978 240.701 C 129.555 259.757,123.954 293.477,123.954 295.033 C 123.954 302.458,128.034 306.453,144.781 315.424 L 147.483 316.872 148.429 315.314 C 151.743 309.859,158.998 304.893,166.873 302.688 L 169.361 301.991 166.493 300.436 C 156.938 295.255,151.592 293.430,147.642 294.002 C 145.637 294.291,139.407 295.766,138.305 296.212 C 137.957 296.353,137.859 296.310,137.944 296.055 C 138.088 295.621,142.952 294.032,146.515 293.256 C 147.978 292.937,149.207 292.658,149.244 292.636 C 149.282 292.615,149.815 289.350,150.429 285.381 C 152.792 270.098,156.270 252.218,156.878 252.218 C 157.414 252.218,154.039 272.948,151.332 286.279 C 150.634 289.717,150.063 292.585,150.063 292.652 C 150.063 292.720,150.393 292.776,150.795 292.776 C 153.451 292.776,162.762 296.606,168.930 300.236 L 171.355 301.664 173.954 301.499 C 183.161 300.916,191.048 304.464,196.432 311.611 L 198.061 313.773 199.249 313.304 C 203.777 311.519,208.122 310.999,210.533 311.954 C 213.540 313.144,218.677 317.649,222.307 322.279 L 224.208 324.704 226.553 324.709 C 229.173 324.715,229.084 324.626,228.537 326.679 C 228.342 327.411,228.215 328.010,228.254 328.010 C 228.293 328.010,229.395 327.364,230.703 326.575 C 260.476 308.603,288.379 300.191,307.985 303.277 C 309.170 303.464,310.172 303.587,310.213 303.551 C 310.531 303.270,320.640 264.547,320.653 263.561 C 320.659 263.141,318.803 263.118,285.186 263.118 L 249.714 263.118 249.055 260.900 C 246.810 253.338,239.741 233.758,238.187 230.798 C 237.140 228.803,234.174 225.715,232.154 224.517 C 229.339 222.847,209.336 216.970,203.480 216.092 L 202.281 215.912 202.275 219.046 C 202.252 229.149,199.680 233.081,192.877 233.412 C 185.136 233.789,179.902 228.395,179.503 219.631 L 179.341 216.067 175.792 216.749 M208.651 235.932 C 208.280 236.620,205.077 239.699,203.671 240.718 C 196.203 246.134,186.045 245.345,176.939 238.641 C 174.883 237.127,175.224 236.734,177.385 238.128 C 188.265 245.145,199.349 244.592,207.087 236.648 C 208.235 235.469,209.118 235.065,208.651 235.932 M227.370 247.212 C 231.066 264.203,236.525 296.474,235.782 296.933 C 235.315 297.222,226.616 248.872,226.616 245.990 C 226.616 245.326,227.147 246.186,227.370 247.212 M209.356 334.664 C 210.162 336.372,210.867 337.901,210.924 338.062 C 210.990 338.249,212.025 337.899,213.815 337.083 C 215.349 336.384,218.771 334.857,221.420 333.689 L 226.236 331.566 217.063 331.563 L 207.891 331.559 209.356 334.664 " stroke="none" fill="#00b1bc " fill-rule="evenodd"></path><path id="path4" d="M135.733 97.085 C 135.733 105.241,135.766 108.577,135.805 104.499 C 135.844 100.421,135.844 93.748,135.805 89.670 C 135.766 85.593,135.733 88.929,135.733 97.085 M160.793 94.994 C 168.576 95.031,181.237 95.031,188.929 94.994 C 196.622 94.956,190.253 94.926,174.778 94.926 C 159.303 94.926,153.009 94.956,160.793 94.994 M160.793 98.289 C 168.576 98.326,181.237 98.326,188.929 98.289 C 196.622 98.252,190.253 98.221,174.778 98.221 C 159.303 98.221,153.009 98.252,160.793 98.289 M187.649 179.922 C 184.578 183.000,182.282 186.429,180.519 190.575 L 179.945 191.924 179.222 190.926 C 175.084 185.213,168.741 190.055,171.984 196.451 C 173.224 198.898,177.064 202.535,178.406 202.535 C 179.422 202.535,179.468 202.966,179.471 212.629 C 179.476 224.582,179.843 226.224,183.273 229.655 C 190.119 236.500,201.471 233.567,201.977 224.822 L 202.089 222.888 200.376 222.750 C 196.598 222.447,191.674 218.993,188.026 214.088 C 185.579 210.797,185.471 210.374,187.505 212.038 C 199.191 221.598,209.232 215.766,212.379 197.592 C 212.966 194.202,213.747 187.072,213.532 187.072 C 213.513 187.072,212.999 187.251,212.389 187.469 C 206.709 189.498,198.980 186.585,192.342 179.913 C 189.693 177.251,190.317 177.250,187.649 179.922 M197.105 189.834 C 197.673 190.093,198.386 190.619,198.689 191.004 C 199.706 192.296,199.229 192.546,197.810 191.464 C 196.580 190.526,194.754 190.392,192.946 191.108 C 191.043 191.862,191.193 191.036,193.138 190.051 C 194.744 189.237,195.678 189.186,197.105 189.834 M209.450 190.462 C 210.426 190.877,211.523 192.002,211.302 192.360 C 211.206 192.515,210.724 192.374,210.072 192.001 C 208.727 191.232,207.069 191.189,205.764 191.888 C 204.646 192.488,204.563 192.499,204.563 192.059 C 204.563 190.683,207.623 189.683,209.450 190.462 M177.605 191.926 C 178.510 192.802,179.321 194.578,179.168 195.346 C 179.100 195.689,178.921 195.503,178.513 194.666 C 177.187 191.944,175.390 191.134,174.107 192.681 C 173.338 193.608,173.155 193.321,173.764 192.142 C 174.552 190.619,176.163 190.528,177.605 191.926 M196.241 193.068 C 197.313 194.038,196.433 196.958,195.069 196.958 C 194.339 196.958,193.663 195.999,193.663 194.964 C 193.663 193.149,195.135 192.067,196.241 193.068 M208.772 193.795 C 209.270 194.555,209.117 196.014,208.463 196.736 C 207.768 197.504,206.677 197.354,206.196 196.424 C 205.128 194.358,207.532 191.903,208.772 193.795 M202.708 200.299 C 204.664 202.377,203.336 205.594,200.908 204.662 C 200.312 204.434,200.422 203.995,201.026 204.186 C 202.686 204.713,203.344 202.544,202.028 200.887 C 201.232 199.885,201.080 198.909,201.451 197.180 C 201.621 196.387,201.654 196.447,201.895 198.018 C 202.068 199.146,202.339 199.907,202.708 200.299 M202.107 207.511 L 204.342 207.677 203.389 208.653 C 201.274 210.818,199.116 210.887,197.148 208.851 C 195.488 207.135,195.550 207.001,197.909 207.188 C 198.989 207.274,200.879 207.419,202.107 207.511 M317.468 289.007 C 316.898 289.136,315.814 289.608,315.060 290.058 L 313.688 290.875 312.620 294.930 C 312.033 297.161,311.277 300.013,310.941 301.267 C 310.606 302.522,310.231 303.991,310.108 304.531 C 309.889 305.498,309.859 305.519,308.041 305.979 C 303.521 307.120,298.837 310.835,300.200 312.198 C 300.706 312.704,311.724 309.849,313.504 308.750 C 314.389 308.204,314.829 308.105,314.829 308.452 C 314.829 309.115,308.946 311.186,304.642 312.038 C 302.638 312.435,300.634 314.714,300.634 316.595 C 300.634 317.246,300.560 317.250,304.943 316.359 C 315.928 314.128,317.943 312.665,315.571 308.644 L 315.039 307.743 315.568 307.001 C 316.933 305.084,315.840 302.698,312.338 299.946 L 311.748 299.482 316.330 295.019 C 319.991 291.453,320.913 290.421,320.913 289.885 C 320.913 288.814,319.701 288.505,317.468 289.007 M313.308 314.699 C 312.541 315.021,310.602 315.594,308.999 315.972 C 307.395 316.350,305.655 316.765,305.131 316.895 C 303.720 317.244,301.394 319.895,301.394 321.153 C 301.394 321.725,307.910 320.941,310.848 320.015 C 314.054 319.005,314.758 318.481,315.173 316.798 C 315.355 316.058,315.123 314.054,314.860 314.091 C 314.773 314.103,314.075 314.376,313.308 314.699 M309.379 320.959 C 308.287 321.257,306.309 321.502,304.237 321.597 C 300.263 321.777,300.439 321.620,301.324 324.213 L 302.028 326.273 304.056 326.096 C 307.956 325.756,309.914 324.760,310.917 322.607 C 311.525 321.301,311.707 320.374,311.343 320.440 C 311.239 320.459,310.355 320.692,309.379 320.959 M116.972 364.322 L 115.970 365.399 117.047 364.397 C 118.049 363.465,118.241 363.245,118.049 363.245 C 118.007 363.245,117.523 363.729,116.972 364.322 M116.984 379.214 C 117.528 379.772,118.031 380.228,118.100 380.228 C 118.170 380.228,117.782 379.772,117.237 379.214 C 116.692 378.657,116.190 378.200,116.120 378.200 C 116.050 378.200,116.439 378.657,116.984 379.214 M127.947 383.707 C 128.400 383.763,129.141 383.763,129.594 383.707 C 130.048 383.651,129.677 383.605,128.771 383.605 C 127.864 383.605,127.494 383.651,127.947 383.707 " stroke="none" fill="#f9b484" fill-rule="evenodd"></path></g></svg>