<svg width="1080" height="1080" fill="none" xmlns="http://www.w3.org/2000/svg"><g clip-path="url(#clip0)"><path opacity=".1" fill-rule="evenodd" clip-rule="evenodd" d="M738.348 998.992C749.087 996.215 755 993.18 755 990c0-13.255-102.751-24-229.5-24S296 976.745 296 990c0 11.65 79.322 21.35 184.55 23.54-.364.48-.55.97-.55 1.46 0 10.08 78.126 18.25 174.5 18.25S829 1025.08 829 1015c0-6.9-36.624-12.91-90.652-16.008z" fill="#6E7B91"/><path opacity=".7" d="M707.456 419.804C643.037 393.4 596.493 351.863 525.66 208.817 425.649 6.721 194.828 153.904 188.862 304.145c-5.967 150.241 101.301 168.781 56.282 417.622-61.376 338.873 365.61 188.045 521.418 102.842 185.826-101.679 230.353-285.955-59.106-404.805z" fill="#DAF2F4"/><rect x="333.661" y="243.884" width="370.277" height="744.877" rx="57.085" fill="#1A2437"/><rect x="356.535" y="265.329" width="325.133" height="700.213" rx="31.137" fill="#F5F8F9"/><path d="M681.239 936.202c0 16.098-13.05 29.148-29.147 29.148H385.148c-16.098 0-29.147-13.05-29.147-29.148V917.42h325.238v18.782z" fill="#F8FBFB"/><path d="M356 917.42h325.239" stroke="#D2DFE6" strokeWidth=".971"/><path fill-rule="evenodd" clip-rule="evenodd" d="M383.96 932.256a9.697 9.697 0 00-8.962 5.988 9.702 9.702 0 007.069 13.226 9.706 9.706 0 009.958-4.125 9.7 9.7 0 00-8.065-15.089zm0 18.333a8.565 8.565 0 01-6.063-2.522 8.383 8.383 0 01-1.564-2.11 8.651 8.651 0 011.735-10.312 8.648 8.648 0 0113.961 3.117 8.646 8.646 0 01-8.045 11.827h-.024z" fill="#2CC3D5"/><path fill-rule="evenodd" clip-rule="evenodd" d="M380.793 940.84a1.048 1.048 0 00.983-.643 1.05 1.05 0 00-.76-1.445 1.05 1.05 0 00-1.266 1.033 1.057 1.057 0 001.043 1.055zm6.489 0a1.052 1.052 0 00.975-.651c.079-.193.1-.405.06-.609a1.056 1.056 0 10-2.01.609 1.054 1.054 0 00.975.651zm-3.893 5.396a5.024 5.024 0 01-3.637-2.243l-.873.57a6.056 6.056 0 004.365 2.716c.226.012.453.012.679 0a6.063 6.063 0 005.08-2.753l-.885-.569a5.013 5.013 0 01-4.729 2.279z" fill="#2CC3D5"/><path d="M403.803 945.255v-8.217h5.198v.793h-4.254v2.855h4.021v.793h-4.021v2.984h4.254v.792h-5.198zm9.5-5.816c1.359 0 2.039.75 2.039 2.25v3.566h-.944v-3.508c0-.528-.105-.913-.315-1.154-.202-.241-.528-.361-.979-.361-.52 0-.936.159-1.247.478-.311.318-.466.75-.466 1.294v3.251h-.944v-5.676h.932v.933a1.88 1.88 0 01.781-.793 2.31 2.31 0 011.143-.28zm6.263 5.14c.171 0 .342-.011.512-.035l-.046.746a3.417 3.417 0 01-.583.047c-.684 0-1.2-.179-1.55-.536-.342-.358-.513-.855-.513-1.492v-2.984h-1.107v-.746h1.107v-1.725h.944v1.725h1.609v.746h-1.609v2.914c0 .894.412 1.34 1.236 1.34zm6.222-2.016h-4.15c.032.66.21 1.162.537 1.504.326.334.788.501 1.387.501.66 0 1.266-.226 1.818-.676l.315.687a2.74 2.74 0 01-.956.56 3.675 3.675 0 01-1.189.198c-.886 0-1.585-.26-2.098-.781-.505-.521-.758-1.239-.758-2.156 0-.583.113-1.096.338-1.539.226-.45.54-.8.944-1.049a2.662 2.662 0 011.399-.373c.754 0 1.344.249 1.772.746.427.49.641 1.166.641 2.028v.35zm-2.401-2.389c-.498 0-.898.155-1.201.466-.295.311-.47.75-.524 1.317h3.298c-.015-.575-.159-1.014-.431-1.317-.272-.311-.653-.466-1.142-.466zm7.009.081l-.618.059c-.583.054-1.006.236-1.271.547-.256.311-.384.696-.384 1.154v3.24h-.944v-5.676h.921v.991c.318-.661.944-1.03 1.876-1.107l.338-.024.082.816zm7.964-.664h.944l-3.356 7.762h-.968l.956-2.168-2.401-5.594h1.002l1.9 4.639 1.923-4.639zm4.206 5.746c-.536 0-1.01-.12-1.422-.361a2.463 2.463 0 01-.944-1.026c-.218-.451-.327-.971-.327-1.562 0-.59.109-1.107.327-1.55.225-.451.54-.796.944-1.037.412-.241.886-.362 1.422-.362.536 0 1.01.121 1.422.362.412.241.726.586.944 1.037.225.443.338.96.338 1.55 0 .591-.113 1.111-.338 1.562a2.37 2.37 0 01-.944 1.026c-.412.241-.886.361-1.422.361zm0-.781c.559 0 .987-.183 1.282-.548.303-.373.454-.913.454-1.62 0-.691-.151-1.224-.454-1.597-.303-.38-.731-.571-1.282-.571-.552 0-.979.191-1.282.571-.303.373-.455.906-.455 1.597 0 .699.148 1.236.443 1.609.303.373.734.559 1.294.559zm8.889-4.977v5.676h-.921v-.967a1.836 1.836 0 01-.757.781c-.319.179-.68.268-1.084.268-.676 0-1.185-.187-1.527-.559-.342-.381-.513-.941-.513-1.679v-3.52h.944v3.497c0 .505.101.878.303 1.119.202.233.521.349.956.349.497 0 .897-.159 1.2-.477.304-.327.455-.754.455-1.283v-3.205h.944zm4.972.676l-.618.059c-.583.054-1.006.236-1.27.547-.257.311-.385.696-.385 1.154v3.24h-.944v-5.676h.921v.991c.318-.661.944-1.03 1.876-1.107l.338-.024.082.816zm10.214-.816c1.259 0 1.888.75 1.888 2.25v3.566h-.944v-3.52c0-.52-.093-.901-.28-1.142-.179-.241-.47-.361-.874-.361-.474 0-.847.159-1.119.478-.272.318-.408.753-.408 1.305v3.24h-.944v-3.52c0-.528-.093-.909-.28-1.142-.186-.241-.481-.361-.885-.361-.474 0-.847.159-1.119.478-.272.318-.408.753-.408 1.305v3.24h-.944v-5.676h.932v.898c.171-.334.408-.591.711-.77a2.034 2.034 0 011.049-.268c.878 0 1.457.373 1.737 1.119.163-.349.412-.621.746-.816a2.161 2.161 0 011.142-.303zm8.363 3.124h-4.149c.031.66.21 1.162.536 1.504.326.334.789.501 1.387.501.661 0 1.267-.226 1.818-.676l.315.687c-.249.233-.567.42-.956.56a3.666 3.666 0 01-1.189.198c-.885 0-1.585-.26-2.097-.781-.506-.521-.758-1.239-.758-2.156 0-.583.113-1.096.338-1.539.225-.45.54-.8.944-1.049a2.66 2.66 0 011.399-.373c.753 0 1.344.249 1.771.746.428.49.641 1.166.641 2.028v.35zm-2.401-2.389c-.497 0-.897.155-1.2.466-.295.311-.47.75-.525 1.317h3.299c-.016-.575-.16-1.014-.431-1.317-.272-.311-.653-.466-1.143-.466zm5.715 5.163c-.955 0-1.713-.245-2.272-.734l.314-.7c.303.241.61.416.921.525.319.101.676.151 1.072.151.42 0 .739-.07.956-.209a.711.711 0 00.338-.63.685.685 0 00-.221-.536c-.148-.132-.393-.237-.735-.315l-.955-.221c-.482-.109-.851-.295-1.108-.56a1.351 1.351 0 01-.384-.979c0-.505.198-.913.594-1.223.396-.311.925-.467 1.585-.467.397 0 .773.066 1.131.198.357.125.656.307.897.548l-.314.688c-.521-.443-1.092-.664-1.714-.664-.396 0-.707.077-.932.233a.713.713 0 00-.326.629c0 .225.066.408.198.548.14.132.361.233.664.303l.967.233c.529.124.921.315 1.178.571.256.249.384.575.384.979 0 .498-.202.894-.606 1.189-.396.295-.94.443-1.632.443zm5.6 0c-.955 0-1.713-.245-2.272-.734l.314-.7c.303.241.61.416.921.525.319.101.676.151 1.072.151.42 0 .739-.07.956-.209a.711.711 0 00.338-.63.685.685 0 00-.221-.536c-.148-.132-.393-.237-.735-.315l-.955-.221c-.482-.109-.851-.295-1.108-.56a1.351 1.351 0 01-.384-.979c0-.505.198-.913.594-1.223.396-.311.925-.467 1.585-.467.397 0 .773.066 1.131.198.357.125.656.307.897.548l-.314.688c-.521-.443-1.092-.664-1.714-.664-.396 0-.707.077-.932.233a.713.713 0 00-.326.629c0 .225.066.408.198.548.14.132.361.233.664.303l.967.233c.529.124.921.315 1.178.571.256.249.384.575.384.979 0 .498-.202.894-.606 1.189-.396.295-.94.443-1.632.443zm5.985-5.898c.723 0 1.259.187 1.609.56.357.365.536.924.536 1.678v3.578h-.921v-.967a1.706 1.706 0 01-.676.781 2.024 2.024 0 01-1.049.268c-.365 0-.703-.074-1.014-.221a1.818 1.818 0 01-.723-.618 1.532 1.532 0 01-.268-.874c0-.428.109-.758.327-.991.217-.241.575-.412 1.072-.513.497-.109 1.189-.163 2.074-.163h.257v-.385c0-.474-.097-.816-.291-1.025-.195-.218-.509-.327-.945-.327-.652 0-1.301.202-1.946.606l-.315-.687c.296-.21.649-.377 1.061-.502.42-.132.824-.198 1.212-.198zm-.373 5.152c.466 0 .847-.155 1.142-.466.303-.319.455-.727.455-1.224v-.338h-.21c-.684 0-1.204.031-1.562.093-.357.055-.614.152-.769.292-.148.132-.221.33-.221.594a.99.99 0 00.326.758c.225.194.505.291.839.291zm9.328-5.012v5.292c0 .847-.218 1.484-.653 1.911-.435.435-1.08.653-1.935.653-.994 0-1.83-.256-2.506-.769l.315-.7c.381.249.738.428 1.072.536.334.109.707.164 1.119.164.544 0 .956-.148 1.236-.443.279-.288.419-.711.419-1.271v-1.002a1.772 1.772 0 01-.757.839c-.335.194-.731.292-1.189.292-.498 0-.94-.117-1.329-.35a2.406 2.406 0 01-.897-.991c-.21-.427-.315-.921-.315-1.48 0-.56.105-1.053.315-1.48.217-.428.516-.758.897-.991.389-.233.831-.35 1.329-.35.45 0 .843.097 1.177.292.334.194.587.47.758.827v-.979h.944zm-2.693 4.721c.544 0 .971-.179 1.282-.537.311-.365.467-.866.467-1.503 0-.629-.156-1.123-.467-1.48-.303-.365-.73-.548-1.282-.548-.551 0-.987.183-1.305.548-.311.357-.466.851-.466 1.48 0 .637.155 1.138.466 1.503.318.358.754.537 1.305.537zm9.196-1.737h-4.15c.031.66.21 1.162.536 1.504.327.334.789.501 1.387.501.661 0 1.267-.226 1.819-.676l.314.687c-.248.233-.567.42-.955.56a3.675 3.675 0 01-1.189.198c-.886 0-1.585-.26-2.098-.781-.505-.521-.758-1.239-.758-2.156 0-.583.113-1.096.338-1.539.225-.45.54-.8.944-1.049a2.66 2.66 0 011.399-.373c.754 0 1.344.249 1.771.746.428.49.642 1.166.642 2.028v.35zm-2.401-2.389c-.498 0-.898.155-1.201.466-.295.311-.47.75-.524 1.317h3.298c-.016-.575-.159-1.014-.431-1.317-.272-.311-.653-.466-1.142-.466zm9.652-.735c1.36 0 2.04.75 2.04 2.25v3.566h-.944v-3.508c0-.528-.105-.913-.315-1.154-.202-.241-.528-.361-.979-.361-.521 0-.936.159-1.247.478-.311.318-.466.75-.466 1.294v3.251h-.945v-8.217h.945v3.45c.186-.342.442-.602.769-.781a2.392 2.392 0 011.142-.268zm8.524 3.124h-4.149c.031.66.21 1.162.536 1.504.326.334.789.501 1.387.501.661 0 1.267-.226 1.818-.676l.315.687c-.249.233-.567.42-.956.56a3.67 3.67 0 01-1.189.198c-.885 0-1.585-.26-2.098-.781-.505-.521-.757-1.239-.757-2.156 0-.583.113-1.096.338-1.539.225-.45.54-.8.944-1.049a2.66 2.66 0 011.399-.373c.753 0 1.344.249 1.771.746.428.49.641 1.166.641 2.028v.35zm-2.401-2.389c-.497 0-.897.155-1.2.466-.296.311-.47.75-.525 1.317h3.299c-.016-.575-.16-1.014-.432-1.317-.272-.311-.652-.466-1.142-.466zm7.009.081l-.618.059c-.582.054-1.006.236-1.27.547-.256.311-.385.696-.385 1.154v3.24h-.944v-5.676h.921v.991c.319-.661.944-1.03 1.877-1.107l.338-.024.081.816zm5.534 2.308h-4.15c.032.66.21 1.162.537 1.504.326.334.788.501 1.387.501.66 0 1.266-.226 1.818-.676l.315.687a2.74 2.74 0 01-.956.56 3.675 3.675 0 01-1.189.198c-.886 0-1.585-.26-2.098-.781-.505-.521-.758-1.239-.758-2.156 0-.583.113-1.096.338-1.539.226-.45.54-.8.944-1.049a2.66 2.66 0 011.399-.373c.754 0 1.344.249 1.772.746.427.49.641 1.166.641 2.028v.35zm-2.401-2.389c-.498 0-.898.155-1.201.466-.295.311-.47.75-.524 1.317h3.298c-.015-.575-.159-1.014-.431-1.317-.272-.311-.653-.466-1.142-.466z" fill="#738192"/><g opacity=".7"><mask id="mask0" maskUnits="userSpaceOnUse" x="356" y="265" width="326" height="701"><rect x="356.535" y="265.329" width="325.133" height="700.213" rx="31.137" fill="#F5F8F9"/></mask><g mask="url(#mask0)"><path d="M681.513 468.917a486.791 486.791 0 00-96.176-9.411c-57.967 0-106.373 10.206-136.646 28.791-61.221 37.766-68.125 117.071-66.776 160.993 1.389 45.43 11.903 108.692 53.603 151.978 33.448 34.748 108.992 53.492 163.23 53.571a30.739 30.739 0 0121.855 8.888 30.788 30.788 0 019.132 21.77v20.77a3.573 3.573 0 005.912 2.7c17.497-15.249 36.066-31.77 54.396-48.727 4.484-3.971 9.086-8.379 13.689-12.588 21.981-19.857 44.715-40.785 60.467-63.182 18.41-26.131 30.352-58.695 35.709-96.779a330.818 330.818 0 00-3.968-107.659c-11.705-58.734-52.333-98.168-114.427-111.115z" fill="#E7EEF1"/></g></g><path d="M356.559 294.254c0-16.097 13.05-29.147 29.147-29.147h266.841c16.097 0 29.147 13.05 29.147 29.147v10.794H356.559v-10.794z" fill="#2498A8"/><path d="M681.797 304.672H356.559v45.647h325.238v-45.647z" fill="#2CC3D5"/><path d="M662.378 327.307l4.942-4.955a.794.794 0 00-.58-1.286.794.794 0 00-.539.177l-4.945 4.942-4.945-4.942a.785.785 0 00-.574-.297.793.793 0 00-.545 1.406l4.942 4.945-4.942 4.955a.793.793 0 00.863 1.291.78.78 0 00.256-.172l4.945-4.945 4.945 4.945a.78.78 0 00.558.231.79.79 0 00.776-.945.793.793 0 00-.215-.405l-4.942-4.945zm-286.953 5.934a.54.54 0 01-.417-.197l-3.819-4.549a1.11 1.11 0 010-1.429l3.819-4.549a.554.554 0 01.85.712l-3.819 4.552 3.812 4.551a.545.545 0 01.079.591.545.545 0 01-.505.318z" fill="#000"/><path d="M428.045 265.107h181.056v2.842c0 13.549-10.983 24.533-24.532 24.533H452.577c-13.549 0-24.532-10.984-24.532-24.533v-2.842z" fill="#1A2437"/><path opacity=".7" fill-rule="evenodd" clip-rule="evenodd" d="M633.693 282.608a8.145 8.145 0 00-5.682 2.309l-1.729-1.707a10.57 10.57 0 0114.801 0l-1.707 1.707a8.145 8.145 0 00-5.683-2.309zm-11.232-2.422h-2.55v9.334h2.55v-9.334zm-6.202 1.858h2.55v7.476h-2.55v-7.476zm-1.102 1.62h-2.549v5.855h2.549v-5.855zm-3.674 1.685h-2.549v4.171h2.549v-4.171zm18.82 1.88a4.863 4.863 0 016.785 0l1.707-1.728a7.301 7.301 0 00-10.199 0l1.707 1.728zm3.392 1.859c-.408.004-.8.158-1.102.432l-1.728-1.729a4.15 4.15 0 012.83-1.123 4.106 4.106 0 012.809 1.123l-1.729 1.729a1.617 1.617 0 00-1.08-.432zm26.751-7.779h-15.298a.475.475 0 00-.476.475v6.115c0 .262.213.475.476.475h15.298a.475.475 0 00.475-.475v-6.115a.475.475 0 00-.475-.475zm1.317 2.01h.346c.263 0 .476.213.476.476v2.095a.476.476 0 01-.476.476h-.346a.476.476 0 01-.475-.476v-2.095c0-.263.213-.476.475-.476zm-286.774 2.18a1.579 1.579 0 011.081-1.469 1.381 1.381 0 01-.886-1.232 1.53 1.53 0 011.707-1.447 1.396 1.396 0 011.097.314 1.412 1.412 0 01.502 1.025 1.383 1.383 0 01-.908 1.275 1.469 1.469 0 011.102 1.404 1.687 1.687 0 01-1.858 1.599c-1.145.022-1.837-.669-1.837-1.469zm2.939 0c0-.67-.454-.994-1.189-1.21a1.184 1.184 0 00-.993 1.145 1.01 1.01 0 00.681.985 1 1 0 00.42.052.995.995 0 001.081-.972zm-2.031-2.744c0 .54.41.843 1.037 1.016a1.106 1.106 0 00.843-.994.857.857 0 00-.568-.858.874.874 0 00-.362-.05.865.865 0 00-.95.864v.022zm5.396.381a.496.496 0 00.352.848.496.496 0 00.351-.848.497.497 0 00-.703 0zm0 2.982a.496.496 0 00.352.848.497.497 0 10-.352-.848zm3.398-.081c.371.225.797.344 1.231.346.951 0 1.232-.605 1.232-1.059 0-.453-.692-1.102-1.426-1.102h-.411v-.561h.411c.54 0 1.231-.26 1.231-.908s-.281-.843-.972-.843c-.389.012-.765.14-1.08.368l-.195-.54a2.541 2.541 0 011.426-.411c1.081 0 1.578.627 1.578 1.296a1.41 1.41 0 01-1.016 1.297 1.426 1.426 0 011.232 1.404c0 .865-.692 1.642-2.01 1.642-.5.009-.992-.118-1.426-.367l.195-.562zm7.605.951c1.21 0 1.901-1.037 1.901-2.896 0-1.75-.691-2.765-1.815-2.765-1.123 0-1.901 1.037-1.901 2.852s.605 2.809 1.815 2.809zm-1.08-2.856c.008 1.4.438 2.121 1.123 2.121.692 0 1.124-.886 1.124-2.269 0-1.382-.346-2.16-1.124-2.16-.769 0-1.116.846-1.123 2.308z" fill="#F5F8F9"/><path d="M534.346 275.16h-54.74a2.415 2.415 0 000 4.83h54.74a2.415 2.415 0 000-4.83zm26.132 3.411a3.435 3.435 0 01-6.807.689 3.437 3.437 0 013.395-4.101 3.413 3.413 0 013.412 3.412z" opacity=".2" fill="#F8FBFB"/><g filter="url(#filter0_d)"><path d="M520.388 421.191c0-6.724-5.451-12.176-12.176-12.176H280.656c-6.725 0-12.177 5.452-12.177 12.176v45.504a2.436 2.436 0 002.436 2.435h237.297c6.725 0 12.176-5.452 12.176-12.176v-35.763z" fill="#fff"/></g><circle r="32.562" transform="matrix(-1 0 0 1 312.466 421.342)" fill="#FFD6D7"/><path d="M375.846 431.625h120.587m-120.587 15.029h81.396" stroke="#D2DFE6" strokeWidth="7.616" strokeLinecap="round"/><g filter="url(#filter1_d)"><path d="M592.823 652.049c0-7.239 5.869-13.108 13.108-13.108h47.173c7.239 0 13.108 5.869 13.108 13.108v18.42a4.214 4.214 0 01-4.214 4.213h-56.067c-7.239 0-13.108-5.868-13.108-13.107v-9.526z" fill="#fff"/></g><path d="M640.096 659.816c1.527-5.842-1.971-11.816-7.813-13.343-5.842-1.527-11.816 1.971-13.343 7.813-1.527 5.842 1.971 11.816 7.813 13.343 5.842 1.527 11.816-1.971 13.343-7.813z" fill="#F9B42F"/><path d="M625.975 655.049c0 .741-.505 1.342-1.124 1.342-.619 0-1.122-.601-1.122-1.342 0-.74.506-1.341 1.122-1.341.617 0 1.124.601 1.124 1.341zm8.963 1.352a.35.35 0 01-.252-.093c-.733-.674-1.812-.147-1.824-.139a.354.354 0 01-.416-.083.355.355 0 01-.041-.422 2.855 2.855 0 012.566-1.284.353.353 0 01.314.244.357.357 0 01-.364.469 2.096 2.096 0 00-.973.172c.455.03.886.215 1.22.525a.356.356 0 01.02.505.334.334 0 01-.25.106zm-4.666 7.766a5.362 5.362 0 01-3.284-1.124.535.535 0 01.654-.846 4.287 4.287 0 004.569.425 4.291 4.291 0 002.345-3.944.538.538 0 011.071-.033 5.37 5.37 0 01-5.194 5.52l-.161.002z" fill="#2C2A46"/><g filter="url(#filter2_d)"><path d="M445.569 497.648c0-7.239-5.868-13.107-13.107-13.107h-47.173c-7.239 0-13.108 5.868-13.108 13.107v18.42a4.214 4.214 0 004.213 4.214h56.068c7.239 0 13.107-5.869 13.107-13.108v-9.526z" fill="#fff"/></g><path d="M410.716 514.152c6.353-1.016 10.679-6.99 9.663-13.343s-6.99-10.679-13.343-9.663c-6.353 1.017-10.679 6.991-9.663 13.344 1.017 6.353 6.991 10.679 13.343 9.662z" fill="#F9B42F"/><path d="M415.626 501.142a.185.185 0 00.27-.154 1.54 1.54 0 00-3.08 0 .193.193 0 00.097.159.191.191 0 00.186-.005 2.391 2.391 0 012.517 0h.01zm-10.983 0a.179.179 0 00.088.021.169.169 0 00.088-.024.181.181 0 00.093-.151 1.54 1.54 0 00-3.079 0c.001.031.01.061.026.088a.181.181 0 00.066.063.185.185 0 00.177.003 2.392 2.392 0 012.519 0h.022zm4.294 6.809a7.85 7.85 0 01-5.3-2.07.572.572 0 01.375-.962.569.569 0 01.4.128 6.668 6.668 0 008.915.105.554.554 0 01.412-.142.572.572 0 01.476.818.583.583 0 01-.135.177 7.758 7.758 0 01-5.143 1.946z" fill="#2C2A46"/><path d="M535.161 718.349c0-7.272-5.895-13.167-13.167-13.167H385.392c-7.272 0-13.167 5.895-13.167 13.167v18.402a4.389 4.389 0 004.389 4.389h145.38c7.272 0 13.167-5.895 13.167-13.167v-9.624zm0 131.391c0-7.272-5.895-13.167-13.167-13.167H385.392c-7.272 0-13.167 5.895-13.167 13.167v18.402a4.389 4.389 0 004.389 4.389h145.38c7.272 0 13.167-5.895 13.167-13.167v-9.624z" fill="#D2DFE6"/><path d="M462.726 773.37c0-7.272 5.895-13.167 13.167-13.167h177.055c7.272 0 13.167 5.895 13.167 13.167v39.752a4.389 4.389 0 01-4.389 4.389H475.893c-7.272 0-13.167-5.895-13.167-13.167V773.37z" fill="#DEE8EC"/><path d="M506.665 961.434a.578.578 0 100-1.155.578.578 0 000 1.155z" fill="#DF638D"/><g filter="url(#filter3_d)"><path d="M440.629 549.427c0-8.867 7.188-16.055 16.055-16.055h351.424c8.868 0 16.056 7.188 16.056 16.055v72.259a3.211 3.211 0 01-3.211 3.211H456.684c-8.867 0-16.055-7.188-16.055-16.055v-59.415z" fill="#fff"/></g><path d="M660.697 567.796H477.102m183.595 22.881H536.77" stroke="#D2DFE6" strokeWidth="10.042" strokeLinecap="round"/><circle cx="757.154" cy="552.623" r="49.576" fill="#008767"/><path d="M429.53 332.148c-1.079 0-2.021-.227-2.828-.68a4.653 4.653 0 01-1.845-1.92c-.423-.827-.635-1.785-.635-2.873 0-1.089.212-2.047.635-2.873a4.554 4.554 0 011.845-1.906c.807-.453 1.749-.68 2.828-.68.705 0 1.381.111 2.026.333.645.211 1.174.509 1.588.892l-.757 1.678a5.028 5.028 0 00-1.391-.771 4.213 4.213 0 00-1.421-.242c-.948 0-1.678.303-2.192.907-.504.605-.756 1.492-.756 2.662 0 1.169.252 2.061.756 2.676.514.605 1.244.907 2.192.907.494 0 .968-.08 1.421-.242a5.028 5.028 0 001.391-.771l.757 1.679c-.414.383-.943.685-1.588.907a6.478 6.478 0 01-2.026.317zm8.482-.015c-.786 0-1.477-.156-2.072-.469a3.408 3.408 0 01-1.376-1.345c-.322-.585-.483-1.27-.483-2.057 0-.786.161-1.466.483-2.041a3.289 3.289 0 011.376-1.346c.595-.312 1.286-.468 2.072-.468s1.477.156 2.071.468a3.277 3.277 0 011.376 1.346c.323.575.484 1.255.484 2.041 0 .787-.161 1.472-.484 2.057a3.396 3.396 0 01-1.376 1.345c-.594.313-1.285.469-2.071.469zm0-1.739c1.109 0 1.663-.71 1.663-2.132 0-.715-.146-1.25-.438-1.603-.283-.352-.691-.529-1.225-.529-1.109 0-1.663.711-1.663 2.132 0 1.422.554 2.132 1.663 2.132zm14.469-5.987c.846 0 1.476.257 1.89.771.413.514.62 1.3.62 2.358v4.476h-2.283v-4.4c0-.504-.081-.867-.242-1.089-.152-.221-.414-.332-.787-.332-.433 0-.771.151-1.013.453-.242.303-.363.726-.363 1.271v4.097h-2.283v-4.4c0-.504-.081-.867-.242-1.089-.151-.221-.413-.332-.786-.332-.434 0-.771.151-1.013.453-.242.303-.363.726-.363 1.271v4.097h-2.283v-7.424h2.222v.998c.232-.383.54-.675.923-.877a2.903 2.903 0 011.346-.302c1.098 0 1.834.458 2.207 1.376.242-.424.58-.757 1.013-.998a2.81 2.81 0 011.437-.378zm8.827 0c.635 0 1.199.166 1.693.499.504.322.892.781 1.164 1.375.283.585.424 1.261.424 2.027 0 .766-.141 1.441-.424 2.026-.272.574-.655 1.018-1.149 1.33-.494.313-1.063.469-1.708.469-.504 0-.963-.101-1.376-.302a2.317 2.317 0 01-.938-.877v3.78h-2.283v-10.146h2.253v1.043c.222-.383.539-.68.953-.892a2.891 2.891 0 011.391-.332zm-.666 5.987c.535 0 .948-.176 1.24-.529.293-.363.439-.882.439-1.557 0-.686-.146-1.215-.439-1.588-.292-.383-.705-.575-1.24-.575-.534 0-.947.187-1.24.56-.292.363-.438.887-.438 1.572 0 .676.146 1.2.438 1.573.293.363.706.544 1.24.544zm8.638-5.987c1.109 0 1.926.262 2.45.786.534.524.801 1.335.801 2.434v4.385h-2.162v-1.104a1.85 1.85 0 01-.756.908c-.353.211-.766.317-1.24.317-.504 0-.962-.101-1.376-.302a2.46 2.46 0 01-.967-.847 2.2 2.2 0 01-.348-1.21c0-.544.136-.972.408-1.285.282-.312.731-.539 1.346-.68.615-.141 1.456-.212 2.525-.212h.393v-.272c0-.444-.096-.756-.287-.938-.192-.181-.524-.272-.998-.272-.363 0-.766.066-1.21.197a5.88 5.88 0 00-1.27.544l-.605-1.527c.424-.262.943-.479 1.558-.65a6.24 6.24 0 011.738-.272zm-.408 6.154c.444 0 .802-.147 1.074-.439.272-.302.408-.69.408-1.164v-.257h-.257c-.817 0-1.391.065-1.724.196-.322.131-.484.368-.484.711a.92.92 0 00.273.68.99.99 0 00.71.273zm10.024-6.154c.887 0 1.547.262 1.98.786.434.514.651 1.295.651 2.343v4.476h-2.284v-4.37c0-.504-.095-.872-.287-1.103-.181-.232-.469-.348-.862-.348-.474 0-.857.151-1.149.453-.282.303-.423.706-.423 1.21v4.158h-2.284v-7.424h2.223v1.058c.262-.403.6-.71 1.013-.922a3.132 3.132 0 011.422-.317zm9.476.196h2.238l-4.476 10.131h-2.313l1.421-3.13-3.054-7.001h2.374l1.875 4.718 1.935-4.718z" fill="#fff"/><mask id="mask1" maskUnits="userSpaceOnUse" x="279" y="388" width="66" height="66"><path d="M312.382 453.903c17.983 0 32.561-14.578 32.561-32.561 0-17.984-14.578-32.562-32.561-32.562s-32.562 14.578-32.562 32.562c0 17.983 14.579 32.561 32.562 32.561z" fill="#FF5A60"/></mask><g mask="url(#mask1)"><path d="M298.582 446.257s-3.891 3.028-5.974 10.811m33.194-10.543s3.873 3.629 5.604 10.526" stroke="#B97CE8" strokeWidth="2.077" strokeLinecap="round" strokeLinejoin="round"/><path d="M296.899 445.242s-3.55 13.643-4.317 14.647l-.39.482a4.7 4.7 0 001.453-.104l1.038-1.275 2.713-9.265-.497-4.485zm29.814 1.623s3.206 11.827 3.988 12.831l.456.693a4.584 4.584 0 01-1.401-.315l-1.034-1.275-2.717-9.265.708-2.669z" fill="#2498A8"/><path d="M330.193 461.55c-1.32-5.66-4.54-18.902-4.54-18.902 0-.649-3.944-.879-12.794-1.053v-.044l-1.283.018-1.286-.018v.044c-8.846.174-12.793.404-12.793 1.053 0 0-3.221 13.253-4.541 18.902-1.267 5.451 2.484 10.266 6.045 10.266h25.147c3.562 0 7.316-4.815 6.045-10.266z" fill="#B97CE8"/><path d="M316.529 396.145c-.533-.671-1.288-.941-1.915-1.525l-.205.046a16.755 16.755 0 011.716 1.798c.259.33.526.63.741 1 .232.341.443.697.63 1.064a7.49 7.49 0 01.741 4.788 10.546 10.546 0 01-2.223 4.447 10.298 10.298 0 002.505-4.384 7.894 7.894 0 00-.626-5.048 11.495 11.495 0 00-1.364-2.186zm-6.6 8.705a3.56 3.56 0 00-2.7-1.098 7.787 7.787 0 00-2.931.604 8.81 8.81 0 00-2.502 1.594 13.064 13.064 0 00-1.996 2.206 13.25 13.25 0 00-1.472 2.593 9.747 9.747 0 00-.739 2.857 7.782 7.782 0 001.561 5.522c.29.392.614.755.949 1.167.324.405.619.833.882 1.28a9.045 9.045 0 011.055 2.925c.371 2.058.019 4.117-.095 6.101a6.086 6.086 0 00.43 2.88c.215.438.506.834.857 1.172.361.337.762.629 1.193.869a7.643 7.643 0 012.354 1.944c.309.403.569.84.777 1.303.199.47.371.951.515 1.441a8.313 8.313 0 00-1.405-2.654 7.425 7.425 0 00-2.37-1.797 6.38 6.38 0 01-1.287-.872 4.55 4.55 0 01-.954-1.243 6.47 6.47 0 01-.54-3.047c.016-1.03.129-2.033.176-3.036.067-.994.019-1.992-.144-2.975a8.554 8.554 0 00-1.016-2.748 10.675 10.675 0 00-.846-1.208c-.307-.373-.664-.759-.975-1.179a8.611 8.611 0 01-1.361-2.786 8.119 8.119 0 01-.242-3.102c.11-1.031.38-2.039.798-2.988.408-.951.935-1.847 1.566-2.666a13.278 13.278 0 012.107-2.229 8.846 8.846 0 012.633-1.579 7.95 7.95 0 013.016-.485 4.39 4.39 0 011.494.333c.475.191.893.501 1.212.901z" fill="#2C2A46"/><path d="M308.066 405.914a3.58 3.58 0 012.059-2.063 7.792 7.792 0 012.934-.586 8.83 8.83 0 012.926.492c.944.314 1.849.735 2.698 1.254a13.315 13.315 0 012.366 1.814 9.79 9.79 0 011.794 2.343 7.778 7.778 0 01.715 5.693c-.114.475-.271.935-.419 1.445-.141.5-.245 1.009-.313 1.523a9.031 9.031 0 00.168 3.105c.46 2.04 1.588 3.799 2.466 5.581.466.868.716 1.835.726 2.82-.028.487-.14.966-.332 1.414a6.13 6.13 0 01-.76 1.265 7.626 7.626 0 00-1.411 2.707 6.574 6.574 0 00-.207 1.503c-.001.511.029 1.021.087 1.528a8.336 8.336 0 01.26-2.991 7.423 7.423 0 011.482-2.579c.334-.399.618-.837.845-1.305.218-.479.352-.992.394-1.517a6.457 6.457 0 00-.69-3.016c-.416-.942-.911-1.822-1.345-2.727a12.78 12.78 0 01-1.027-2.796 8.547 8.547 0 01-.135-2.927c.069-.487.172-.969.307-1.442.138-.463.316-.958.439-1.466a8.625 8.625 0 00.168-3.096 8.13 8.13 0 00-.987-2.951 10.045 10.045 0 00-1.9-2.441 12.37 12.37 0 00-2.481-1.845 13.331 13.331 0 00-2.809-1.231 8.857 8.857 0 00-3.04-.427 7.943 7.943 0 00-2.967.728 4.39 4.39 0 00-1.246.889 2.963 2.963 0 00-.765 1.302z" fill="#2C2A46"/><path d="M324.344 416.3v12.569c0 5.648-4.247 10.366-9.91 11.52a13.7 13.7 0 01-2.702.266h-.66a13.484 13.484 0 01-2.703-.27c-5.663-1.158-9.906-5.872-9.906-11.516V416.3c0-6.509 5.644-11.786 12.601-11.786h.672c6.968 0 12.608 5.277 12.608 11.786z" fill="#2C2A46"/><path d="M311.558 447.353c2.143 0 3.88-1.431 3.88-3.197 0-1.765-1.737-3.196-3.88-3.196-2.142 0-3.879 1.431-3.879 3.196 0 1.766 1.737 3.197 3.879 3.197z" fill="#F3C29F"/><path d="M311.558 447.353c2.143 0 3.88-1.431 3.88-3.197 0-1.765-1.737-3.196-3.88-3.196-2.142 0-3.879 1.431-3.879 3.196 0 1.766 1.737 3.197 3.879 3.197z" stroke="#fff" strokeWidth=".149" stroke-miterlimit="10"/><path d="M311.871 436.726h-.629a11.69 11.69 0 01-2.536-.274v7.335a2.547 2.547 0 00.747 1.81c.237.237.519.426.829.555.311.128.643.194.979.194h.591c.336 0 .668-.066.979-.194a2.57 2.57 0 001.383-1.386c.128-.31.194-.643.193-.979v-7.339c-.833.183-1.683.276-2.536.278z" fill="#F3C29F"/><path d="M308.713 438.44v2.111s.614-1.046 2.853-1.057c2.239-.012 2.849 1.158 2.849 1.158v-2.537l-5.702-.104v.429z" fill="#E8AA7D"/><path d="M323.733 414.537v12.322c0 5.532-3.991 10.157-9.326 11.288-.834.176-1.684.264-2.537.263h-.629a11.944 11.944 0 01-2.536-.267c-5.332-1.127-9.327-5.756-9.327-11.284v-12.322c0-6.382 5.312-11.555 11.863-11.555h.629c6.555 0 11.863 5.177 11.863 11.555z" fill="#F3C29F"/><path d="M299.379 421.226v5.427a1.842 1.842 0 01-1.815-1.849v-1.729a1.848 1.848 0 011.815-1.849zm26.168 1.849v1.729a1.844 1.844 0 01-1.814 1.849v-5.427a1.851 1.851 0 011.814 1.849z" fill="#F3C29F"/><path d="M323.448 417.652s.224 3.887 0 5.381c-.224 1.494.896-5.381.896-5.381h-.896zm-23.637 2.089s-.205 3.887 0 5.404c.204 1.518-.896-5.404-.896-5.404h.896zm6.511-19.095a5.828 5.828 0 013.201-5.983 5.827 5.827 0 018.322 4.276 5.822 5.822 0 01-6.505 6.725 5.82 5.82 0 01-5.018-5.018z" fill="#2C2A46"/><path d="M309.853 398.588l2.247 4.833 3.98-9.354" stroke="#F99B45" strokeWidth=".299" strokeLinecap="round" strokeLinejoin="round"/><path d="M299.699 421.798a1.8 1.8 0 01-1.985-1.518c-.127-.857-.262-1.849-.305-2.47-.467-6.64 4.899-14.392 10.891-14.392h8.311c7.169.896 9.91 9.489 8.316 16.291a.964.964 0 01-1.352.645 72.821 72.821 0 00-2.216-.965c-2.733-1.158-4.555-5.197-4.555-5.197s0 2.182-6.485 5.197c-2.911 1.355-7.976 2.096-10.62 2.409z" fill="#2C2A46"/><path d="M317.745 410.37c-.14.989-.366 1.963-.675 2.913-.299.96-.681 1.892-1.141 2.787a13.584 13.584 0 01-1.649 2.549c-.326.393-.676.764-1.049 1.112-.196.167-.396.33-.597.493-.1.082-.196.167-.303.241l-.327.208a16.005 16.005 0 01-5.681 2.079c-.988.176-1.987.278-2.99.307a17.44 17.44 0 01-2.987-.152 29.09 29.09 0 005.855-.741 21.238 21.238 0 002.791-.841c.229-.082.448-.182.674-.278.226-.097.448-.182.66-.297l.648-.326c.211-.115.4-.252.604-.37l.304-.186c.097-.066.185-.144.278-.218l.571-.471c.337-.341.693-.66.997-1.034a14.816 14.816 0 001.667-2.379c.498-.846.939-1.723 1.32-2.628.39-.904.734-1.828 1.03-2.768z" fill="#2C2A46"/></g><path fill-rule="evenodd" clip-rule="evenodd" d="M400.887 341.712a14.265 14.265 0 0013.173-8.812 14.263 14.263 0 00-3.094-15.544 14.267 14.267 0 00-24.356 10.079 14.307 14.307 0 0014.277 14.277z" fill="#008767"/><path d="M414.016 322.628a4.726 4.726 0 10-.002-9.452 4.726 4.726 0 00.002 9.452z" fill="#BED42B" stroke="#2CC3D5" strokeWidth="1.121" stroke-miterlimit="10"/><path d="M397.294 90.802a7.935 7.935 0 00-4.569-4.579 17.27 17.27 0 00-6.511-1.3 19.579 19.579 0 00-6.492 1.092 29.04 29.04 0 00-5.987 2.782 29.508 29.508 0 00-5.251 4.026 21.68 21.68 0 00-3.98 5.199 17.265 17.265 0 00-1.587 12.633c.255 1.054.602 2.074.93 3.207.312 1.108.545 2.237.696 3.379a20.108 20.108 0 01-.374 6.89c-1.021 4.526-3.523 8.429-5.471 12.384a13.516 13.516 0 00-1.613 6.258 9.326 9.326 0 00.738 3.136 13.6 13.6 0 001.686 2.807 16.955 16.955 0 013.131 6.008c.281 1.09.436 2.209.46 3.334a29.562 29.562 0 01-.193 3.391c.211-2.23.016-4.479-.577-6.638a16.484 16.484 0 00-3.288-5.722 14.115 14.115 0 01-1.876-2.895 10.06 10.06 0 01-.875-3.367 14.336 14.336 0 011.532-6.692c.924-2.09 2.021-4.043 2.984-6.051a28.517 28.517 0 002.28-6.205c.473-2.131.574-4.328.3-6.494a23.765 23.765 0 00-.683-3.201c-.306-1.026-.701-2.125-.973-3.252a19.115 19.115 0 01-.373-6.87 18.06 18.06 0 012.189-6.548 22.332 22.332 0 014.216-5.416 27.421 27.421 0 015.506-4.094 29.494 29.494 0 016.233-2.732 19.608 19.608 0 016.746-.949c2.278.109 4.514.657 6.583 1.616a9.758 9.758 0 012.764 1.974 6.57 6.57 0 011.699 2.89z" fill="#2C2A46"/><path d="M421.379 72.13v-.196a.296.296 0 01.044-.103.286.286 0 01.188-.116.39.39 0 01.357.17c.099.09 1.048 1.04 1.728 1.736.303.286.549.532.655.638a10 10 0 00.573-.59l.139-.122 5.118-5.118a.514.514 0 01.139-.13c.172-.124.303-.124.483.13v.262a1.25 1.25 0 01-.229.238l-.074.082-5.731 5.731a.676.676 0 01-.385.303.296.296 0 01-.205-.049l-2.153-2.153a3.061 3.061 0 00-.303-.303 2.499 2.499 0 01-.287-.303l-.057-.107zm9.522-1.637v.188c-.167.205-.347.4-.54.581a1.25 1.25 0 00-.18.18l-3.652 3.636c-.229.237-.377.164-.516 0l-.057-.041h-.049v-.05l-.32-.319a.355.355 0 01-.081-.319.401.401 0 01.081-.123.3.3 0 01.107-.09.351.351 0 01.311.05c.081.072.157.148.229.229l.058.057c.384-.352 2.35-2.334 3.324-3.316l.499-.5.107-.106c.147-.164.295-.32.491-.287a.37.37 0 01.213.156l-.025.074zm-9.523 66.771v-.196a.286.286 0 01.32-.156.442.442 0 01.245.172c.099.09 1.048 1.04 1.728 1.736.303.287.549.532.655.639.201-.19.392-.389.573-.598l.139-.115 5.118-5.117a.51.51 0 01.139-.131c.172-.123.303-.123.483.131v.262a1.291 1.291 0 01-.229.238l-.074.081-5.731 5.732a.673.673 0 01-.385.303.29.29 0 01-.167-.022.29.29 0 01-.128-.109l-2.153-2.154a3.106 3.106 0 00-.23-.229l-.057-.057a2.491 2.491 0 01-.287-.303l.041-.107zm9.523-1.637v.196c-.17.204-.35.398-.541.582a.93.93 0 00-.18.18l-3.651 3.635c-.23.238-.377.164-.516 0l-.058-.041-.049-.041v-.049l-.319-.319a.358.358 0 01-.082-.319.379.379 0 01.082-.123.297.297 0 01.106-.09.342.342 0 01.162-.012.346.346 0 01.15.061l.229.229.057.057c.385-.352 2.35-2.333 3.324-3.275l.5-.499.106-.107c.148-.163.295-.319.492-.286a.358.358 0 01.212.147l-.024.074z" fill="#3D9BD6"/><path d="M326.276 339.915v9.383" stroke="#F3C29F" strokeWidth="14.738" strokeLinecap="round" strokeLinejoin="round"/><path d="M298.085 369.341c-.041 1.712.966 3.128 2.227 3.128l32.858.18c.983 0 1.769-1.113 1.728-2.456l-.057-2.014a1.91 1.91 0 01-1.638 1.735l-32.923-.155a2.397 2.397 0 01-2.08-1.941 9.36 9.36 0 00-.115 1.523z" fill="#080B12"/><path d="M298.986 365.501A5.567 5.567 0 01301 363.52l7.443-4.143a9.98 9.98 0 001.768-1.024l6.903-4.135a6.71 6.71 0 011.408-.589v-2.571a1.696 1.696 0 01.499-1.213 1.692 1.692 0 011.212-.498h12.372a1.712 1.712 0 011.711 1.711v4.782c.05.352.066.72.082 1.121l.467 11.865c.01.174-.009.348-.057.515a1.708 1.708 0 01-1.638 1.27l-32.751-.123a2.247 2.247 0 01-2.072-1.425 2.36 2.36 0 01-.155-.868c.034-.95.307-1.877.794-2.694z" fill="#202C44"/><path d="M326.293 351.943c4.097 0 7.418-.484 7.418-1.081s-3.321-1.081-7.418-1.081c-4.097 0-7.418.484-7.418 1.081s3.321 1.081 7.418 1.081z" fill="#F3C29F"/><path d="M318.875 348.299v2.563h14.844l-.074-3.022-14.77.459z" fill="#F3C29F"/><path d="M327.504 364.257a3.218 3.218 0 100-6.435 3.218 3.218 0 000 6.435z" stroke="#F8FBFB" strokeWidth="1.154" strokeLinecap="round" strokeLinejoin="round"/><path d="M310.99 357.878l3.078 2.735a.821.821 0 00.574.213.877.877 0 00.646-.287.871.871 0 00-.073-1.22l-2.67-2.366-1.555.925zm-3.013 1.753l3.398 3.021a.824.824 0 00.626.236.826.826 0 00.594-.31.869.869 0 00-.066-1.22l-2.931-2.595c-.375.228-.763.434-1.163.614l-.458.254zm-3.472 1.94l3.684 3.275a.825.825 0 00.95.142.826.826 0 00.262-.215.826.826 0 00.236-.621.809.809 0 00-.301-.591l-3.275-2.882-1.556.892z" fill="#F8FBFB"/><path d="M279.368 336.524l-5.06 7.91" stroke="#EFB8C2" strokeWidth="14.738" strokeLinecap="round" strokeLinejoin="round"/><path d="M239.73 346.129c-.949 1.425-.818 3.16.205 3.832l27.585 17.841c.819.541 2.088 0 2.776-1.13l1.04-1.727a1.918 1.918 0 01-2.35.565l-27.593-17.858a2.395 2.395 0 01-.705-2.759c-.351.386-.671.8-.958 1.236z" fill="#080B12"/><path d="M242.58 343.402a5.562 5.562 0 012.776-.589l8.499.516c.675.099 1.358.129 2.039.09l8.049.229c.507.03 1.01.118 1.498.262l1.384-2.17a1.72 1.72 0 012.366-.524l10.431 6.665a1.718 1.718 0 01.749 1.076 1.707 1.707 0 01-.233 1.29l-2.595 4.094c-.148.311-.328.639-.533.983l-5.993 10.251a1.412 1.412 0 01-.328.401 1.706 1.706 0 01-2.088.18L241.09 348.43a2.252 2.252 0 01-.98-1.434 2.216 2.216 0 01-.001-.885 2.21 2.21 0 01.343-.817 5.59 5.59 0 012.128-1.892z" fill="#202C44"/><path d="M279.74 349.746c.322-.503-2.217-2.698-5.669-4.904-3.453-2.205-6.513-3.585-6.834-3.082-.321.503 2.217 2.698 5.67 4.904 3.453 2.205 6.512 3.586 6.833 3.082z" fill="#F3C29F"/><path d="M268.609 339.604l-1.375 2.161 12.503 7.992 1.564-2.588-12.692-7.565z" fill="#F3C29F"/><path d="M270.19 357.363a3.217 3.217 0 100-6.435 3.217 3.217 0 000 6.435z" stroke="#F8FBFB" strokeWidth="1.154" strokeLinecap="round" strokeLinejoin="round"/><path d="M256.811 343.435l1.154 3.963c.052.204.182.38.36.491a.89.89 0 00.704.107.859.859 0 00.522-.413.878.878 0 00.076-.66l-.974-3.431-1.842-.057zm-3.48-.147l1.228 4.372c.059.205.19.382.368.499a.906.906 0 00.704.107.88.88 0 00.598-1.073l-1.073-3.766a11.55 11.55 0 01-1.301-.098l-.524-.041zm-3.98-.238l1.343 4.741a.869.869 0 001.064.598.823.823 0 00.639-.725.834.834 0 00-.041-.34l-1.171-4.159-1.834-.115z" fill="#F8FBFB"/><path d="M410.996 194.473l.819 1.793c.262.565.515 1.114.753 1.638.475 1.113.933 2.235 1.384 3.357.818 2.26 1.637 4.552 2.366 6.935a67.097 67.097 0 012.833 15.631 37.955 37.955 0 01-.819 10.022 27.608 27.608 0 01-2.194 6.231 23.8 23.8 0 01-4.913 6.697 23.045 23.045 0 01-7.729 4.839 25.85 25.85 0 01-7.689 1.638c-2.415.229-4.831.401-7.221.499-4.717.17-9.44.096-14.149-.221-4.618-.303-9.121-.818-13.428-1.22a390.64 390.64 0 00-6.239-.581c-1.99-.164-3.89-.287-5.535-.295a18.848 18.848 0 00-3.472.205c-.18 0-.131.074.499-.18a8.805 8.805 0 002.981-2.211 9.476 9.476 0 001.433-2.088 8.606 8.606 0 00.671-1.842c.049-.279.09-.442.107-.647.016-.205 0 0 0 .082v.172l-.066.352-.286 1.416-.287 1.417c-.098.458-.188.942-.278 1.466l-.516 3.037c-.361 2.006-.663 4.094-.991 6.207-.328 2.112-.614 4.2-.917 6.304-1.204 8.458-2.252 17.015-3.357 25.587a2761.565 2761.565 0 00-3.193 25.768l-3.185 25.808-22.689-1.392c0-8.769.156-17.481.278-26.201.123-8.72.442-17.465.721-26.201.278-8.737.729-17.506 1.236-26.349.131-2.211.254-4.413.426-6.649.172-2.235.295-4.446.516-6.746l.303-3.423c.049-.557.106-1.146.188-1.76l.205-1.802.221-1.809.049-.451v-.229c0-.098 0-.082.049-.319.131-.737.262-1.441.475-2.235a22.507 22.507 0 015.191-9.597 23.5 23.5 0 018.36-5.788 28.47 28.47 0 016.78-1.851 41.198 41.198 0 015.191-.442c1.555 0 2.988 0 4.339.049 5.371.27 9.826.819 14.206 1.269 4.381.451 8.475.917 12.519 1.286 4.045.368 7.992.712 11.889.941 1.941.131 3.881.238 5.797.295-.442.118-.877.263-1.302.434a6.763 6.763 0 00-2.186 1.507 4.37 4.37 0 00-1.007 1.531c-.098.303 0 .344.115.155.41-.913.654-1.891.72-2.89a31.75 31.75 0 00.238-4.765 57.9 57.9 0 00-.279-5.462c-.18-1.883-.352-3.815-.622-5.731-.115-.966-.246-1.949-.385-2.915l-.204-1.441-.107-.704a5.722 5.722 0 01-.065-.598l21.452-7.533z" fill="#CEDFE7"/><path d="M431.859 199.959l.475 2.203c.139.68.27 1.351.376 2.022.23 1.335.451 2.678.606 4.029.341 2.744.527 5.505.557 8.27a59.382 59.382 0 01-.483 8.81 43.865 43.865 0 01-2.35 9.825 32.822 32.822 0 01-2.571 5.421c-1.196 2.029-2.637 5.133-4.29 6.812-3.844 3.91-4.419 4.6-9.826 5.511a50.71 50.71 0 01-2.644.328l-1.581.139-1.932.172c-1.286.123-2.587.197-3.881.295-2.596.114-5.208.221-7.803.196-5.183 0-10.399-.401-15.025-.769-2.309-.18-4.446-.328-6.337-.361a39.783 39.783 0 00-5.085.181 25.958 25.958 0 00-4.536.908c-1.539.426-3.144 1.024-4.864 1.687a159.24 159.24 0 00-5.395 2.17l-.353.147s0-.057-.057 0a1.021 1.021 0 01-.196.09c-.074 0-.197.123-.295.181-.098.057-.5.327-.753.483l-.909.687a54.724 54.724 0 00-4.168 3.726 113.395 113.395 0 00-4.389 4.569c-2.931 3.209-5.846 6.665-8.712 10.202-5.731 7.107-11.307 14.582-16.842 22.107-5.535 7.525-10.906 15.287-16.237 23.065a1712.882 1712.882 0 00-15.786 23.434l-19.651-11.463a695.436 695.436 0 016.854-12.814c2.325-4.241 4.659-8.442 7.033-12.642a898.226 898.226 0 0114.738-24.998c5.068-8.294 10.366-16.49 16.089-24.621 2.866-4.094 5.838-8.13 9.064-12.183 1.638-2.031 3.275-4.094 5.126-6.108 1.85-2.015 3.775-4.094 6.084-6.231.581-.533 1.203-1.073 1.834-1.638.63-.565 1.31-1.081 2.104-1.638.393-.286.745-.556 1.171-.818l1.31-.868c.426-.279 1.007-.598 1.506-.885l1.212-.655a72.072 72.072 0 017.648-3.66 67.072 67.072 0 018.703-2.8 65.686 65.686 0 019.531-1.58 73.292 73.292 0 019.195-.221c2.874.106 5.486.319 7.926.516 4.913.417 9.17.819 13.518 1.089 2.162.147 4.315.278 6.485.385 1.089.049 2.178.122 3.275.147l1.638.057h.204s-.09 0-.139.058a6.655 6.655 0 00-.958.491 2.12 2.12 0 00-.671.688c-.074.155 0 .196.204.049.288-.265.533-.571.729-.909a18.935 18.935 0 001.703-3.906 54.662 54.662 0 001.343-5.363 91.62 91.62 0 00.933-6.018c.123-1.023.254-2.071.353-3.111l.147-1.548.074-.745v-.36c0-.09 0-.27.049-.254l18.922-1.983z" fill="#DEE8EC"/><path d="M393.147 53.167a30.362 30.362 0 00-10.964 8.818c-6.067 8.025-2.538 20.798-8.524 29.174-2.317 3.275-5.797 5.38-8.138 8.605a16.37 16.37 0 00-2.457 13.494c.909 3.472 2.973 6.657 3.038 10.267.098 6.297-5.731 10.825-7.533 16.835-2.03 6.894 2.645 15.115 9.334 16.375 4.659.901 9.736-1.129 14.084.868 5.011 2.309 6.828 8.843 10.816 12.798a13.363 13.363 0 0017.604.819c2.333-1.949 4.347-4.847 7.311-5.109 2.964-.262 5.413 2.292 8.057 3.741 5.806 3.194 13.453.819 17.645-4.503s5.199-12.945 3.75-19.716c-1.04-4.872-3.275-9.646-2.751-14.616.459-4.413 3.005-8.237 4.438-12.421a22.697 22.697 0 00-1.867-19.241c-2.153-3.488-4.872-6.616-6.485-10.415-2.153-5.06-2.178-10.833-3.586-16.18-3.177-12.126-13.919-21.362-25.694-22.827a32.815 32.815 0 00-18.078 3.234z" fill="#2C2A46"/><path d="M385.09 134.481c-8.188 7.369-20.601 47.842-24.564 59.771" stroke="#F3C29F" strokeWidth="14.738" strokeLinecap="round" strokeLinejoin="round"/><path d="M376.828 219.102a1.469 1.469 0 01.041-.524l.623-1.687c1.482-4.02 5.052-14.173 5.158-18.586a198.346 198.346 0 00-1.547-24.744c1.203.647 2.382 1.531 3.651 1.531h45.631c1.261 0 1.834-1.301 3.046-1.94-.638 4.323-.671 17.628-.483 25.153.115 4.413-.827 12.683.647 16.703v6.141c0-.409 0-.409 0 0v.819c0 2.244-8.646 1.228-25.792 1.228-17.145 0-30.983-1.85-30.983-4.094h.008z" fill="#FB5A8B"/><path d="M376.574 158.586c2.219-9.514 7.632-31.777 7.632-31.777 0-1.089 6.623-1.482 21.493-1.769v-.098h4.315v.074c14.869.286 21.493.679 21.493 1.768 0 0 .467 19.463 2.735 28.952a25.14 25.14 0 01.286 4.52 75.97 75.97 0 01-.458 8.491c-.418 4.233-1.589 7.066-5.085 7.066h-42.258c-5.944.025-12.281-8.073-10.153-17.227z" fill="#FB5A8B"/><path opacity=".2" d="M423.467 175.838c5.068-1.302 6.132-5.478 6.231-10.071.27-12.364-3.005-29.403-3.276-30l6.551 12.445c.393 3.636 1.383 6.984 1.482 9.605.311 7.95-.475 11.356-1.032 15.557-.131 2.104-.819 28.473-.229 30.553.622 2.219-3.496.95-3.496.95s-8.188-24.92-26.464-29.039h20.233z" fill="#CF5358"/><path d="M406.321 134.521c3.686 0 6.673-2.463 6.673-5.502 0-3.039-2.987-5.502-6.673-5.502-3.685 0-6.673 2.463-6.673 5.502 0 3.039 2.988 5.502 6.673 5.502z" fill="#F3C29F"/><path d="M406.321 134.521c3.686 0 6.673-2.463 6.673-5.502 0-3.039-2.987-5.502-6.673-5.502-3.685 0-6.673 2.463-6.673 5.502 0 3.039 2.988 5.502 6.673 5.502z" stroke="#fff" strokeWidth=".999" stroke-miterlimit="10"/><path d="M405.781 113.217h1.089a19.64 19.64 0 004.356-.475v12.593a4.392 4.392 0 01-1.282 3.112 4.403 4.403 0 01-3.107 1.293h-1.023a4.393 4.393 0 01-3.107-1.293 4.393 4.393 0 01-1.282-3.112V112.75c1.43.314 2.891.471 4.356.467z" fill="#F3C29F"/><path d="M411.217 116.181v3.635s-1.048-1.801-4.913-1.818c-3.864-.016-4.912 1.998-4.912 1.998v-4.372l9.825-.18v.737z" fill="#E8AA7D"/><path d="M385.376 74.423v21.526a20.253 20.253 0 0016.049 19.724c1.431.308 2.891.461 4.356.459h1.089a20.39 20.39 0 0020.404-20.183V74.423A20.299 20.299 0 00406.87 54.24h-1.089a20.281 20.281 0 00-14.384 5.864 20.286 20.286 0 00-6.021 14.319z" fill="#F3C29F"/><path opacity=".3" d="M393.007 176.312l-6.28-.475c-2.3 0-2.055-1.146-3.52-2.923a7.631 7.631 0 01-.574-.777c-9.145-14.28 1.957-29.853 3.104-36.371.147-.819-.123-1.588-.942-1.507l-1.769.181a1 1 0 00-.859.745c-1.769 7.328-4.258 17.677-5.593 23.401a15.236 15.236 0 00.232 8.164 15.232 15.232 0 004.419 6.869.962.962 0 01.36.695l1.171 20.552a.977.977 0 00.598.819l.368.164a1 1 0 001.025-.155.993.993 0 00.326-.983l-.491-2.121c-.368-1.073-1.809-8.45 0-12.593 1.466-3.341 5.863-3.717 8.425-3.685z" fill="#CF5358"/><path opacity=".6" d="M378.449 158.962c.442-.818.819-1.694 1.204-2.538l1.064-2.595c.696-1.728 1.277-3.497 1.924-5.249.647-1.752 1.13-3.553 1.638-5.355l.704-2.71c.18-.925.418-1.826.557-2.759h-.074l-3.57 10.587-3.496 10.644.049-.025z" fill="#C64A79"/><path d="M430.393 134.046s25.227 49.996 12.953 66.224c-8.72 11.512-39.514 12.044-39.514 12.044" stroke="#EFB8C2" strokeWidth="14.738" strokeLinecap="round" strokeLinejoin="round"/><path d="M430.393 134.046a218.604 218.604 0 0111.602 28.658c4.479 14.124 7.263 29.771 1.351 37.582-8.72 11.512-39.514 12.045-39.514 12.045" stroke="#F3C29F" strokeWidth="14.738" strokeLinecap="round" strokeLinejoin="round"/><path d="M430.115 134.203a192.594 192.594 0 0111.88 28.477" stroke="#FB5A8B" strokeWidth="16.376" strokeLinecap="round" strokeLinejoin="round"/><path d="M385.278 60.118l1.728 1.056 4.266 1.744 4.691-7.082 25.547 7.041s21.468 28.347 3.701 27.389c.425 3.079-.819 10.644-.819 10.644.204-1.637-1.138-9.424-1.638-10.644-20.101-.622-32.096-7.37-35.421-15.696-3.504 5.297-2.669 9.006-7.549 11.545l-.974-3.57c-1.228-6.411 1.973-17.375 6.468-22.427z" fill="#2C2A46"/><path d="M385.09 134.481c-8.188 7.369-11.676 15.983-15.631 27.912" stroke="#FB5A8B" strokeWidth="16.376" strokeLinecap="round" strokeLinejoin="round"/><path d="M376.479 172.906l14.919 50.429a.11.11 0 01.002.054.118.118 0 01-.022.05.105.105 0 01-.042.033.11.11 0 01-.053.011h-66.076a5.236 5.236 0 01-4.97-3.586l-14.517-43.863a5.24 5.24 0 01.723-4.707 5.226 5.226 0 014.239-2.171h60.786a5.225 5.225 0 015.011 3.75z" fill="#fff"/><path d="M425.21 83.716l4.094-5.731-2.456-9.826-.819-4.913-4.094-4.094-5.731-4.094-7.37-2.456-9.825 2.456-6.55 2.457-4.913 4.094-.819 8.188-1.122 1.907 39.605 12.012zm-.818 9.007v.696s.188 5.625 0 7.491c-.819 8.188-3.275 10.645-3.275 10.645l9.825-10.645 1.638-9.006-1.638-6.55h-2.456l-3.275 1.637-1.638 2.457" fill="#2C2A46"/><path d="M420.265 102.687s-1.818-8.671 2.874-10.497c4.692-1.826 5.797 4.683 3.562 7.656-2.236 2.972-6.436 2.841-6.436 2.841z" fill="#F3C29F"/><path d="M338.403 342.289c.086-1.177-4.938-2.501-11.221-2.957-6.283-.456-11.445.129-11.53 1.306-.086 1.177 4.938 2.501 11.221 2.957 6.283.456 11.445-.129 11.53-1.306z" fill="#95A3D1"/><path d="M286.196 347.038c.963-1.52-2.558-5.477-7.864-8.838-5.307-3.361-10.389-4.853-11.352-3.333-.963 1.521 2.558 5.478 7.864 8.839 5.306 3.361 10.389 4.853 11.352 3.332z" fill="#A3AEDD"/><path d="M285.713 346.89l.475.172.434-.72 1.547-3.808-3.209-.794-.434 2.972.95 2.064.237.114z" fill="#A3AEDD"/><rect x="268.469" y="326.364" width="29.476" height="11.904" rx="4.094" transform="rotate(32.583 268.469 326.364)" fill="#E5EDF0"/><rect x="312.005" y="332.095" width="29.476" height="11.904" rx="4.094" fill="#C3D9E3"/><g opacity=".9"><path opacity=".5" d="M352.818 197.512a8.754 8.754 0 00-5.946-4.304 17.227 17.227 0 00-3.204-.307c-1.38 0-3.239.19-4.322 1.047-1.353 1.083-1.507 3.185-.433 5.911a12.43 12.43 0 003.889 5.351 11.735 11.735 0 006.082 1.976l.505 1.416a1.388 1.388 0 001.173.858h.082a.561.561 0 00.406-.199c.478-.604 1.119-1.408 1.714-2.247l.262-.361a8.132 8.132 0 001.209-2.084c.632-1.778.063-4.413-1.417-7.057z" fill="#D2DFE6"/></g><path d="M414.989 59.147a7.942 7.942 0 00-3.801-5.234 17.263 17.263 0 00-6.229-2.299 19.58 19.58 0 00-6.583.069 29.058 29.058 0 00-6.347 1.815c-2.05.832-4 1.893-5.814 3.16a21.669 21.669 0 00-4.74 4.516 17.265 17.265 0 00-3.535 12.232c.088 1.081.272 2.143.42 3.312.136 1.144.19 2.296.161 3.447a20.096 20.096 0 01-1.442 6.748c-1.713 4.311-4.791 7.778-7.332 11.381a13.512 13.512 0 00-2.567 5.931 9.323 9.323 0 00.241 3.213 13.564 13.564 0 001.228 3.034 16.957 16.957 0 012.158 6.423c.108 1.12.086 2.249-.065 3.365a29.632 29.632 0 01-.719 3.319c.556-2.169.713-4.421.464-6.646a16.472 16.472 0 00-2.358-6.165 14.155 14.155 0 01-1.402-3.151 10.087 10.087 0 01-.34-3.462c.323-2.3 1.2-4.487 2.555-6.372 1.238-1.921 2.626-3.68 3.89-5.513a28.494 28.494 0 003.218-5.774 18.97 18.97 0 001.307-6.369 23.636 23.636 0 00-.177-3.268c-.142-1.061-.361-2.209-.455-3.363a19.114 19.114 0 01.702-6.845 18.04 18.04 0 013.182-6.127 22.32 22.32 0 015.007-4.694 27.429 27.429 0 016.076-3.187 29.51 29.51 0 016.582-1.728c2.26-.36 4.566-.322 6.812.113a17.634 17.634 0 016.251 2.62 9.766 9.766 0 012.424 2.38 6.594 6.594 0 011.228 3.119z" fill="#2C2A46"/><path d="M387.335 68.791a29.316 29.316 0 001.149 4.963 29.708 29.708 0 001.945 4.748 23.071 23.071 0 002.81 4.344 20.363 20.363 0 001.786 1.894c.335.285.676.562 1.017.84.171.139.335.284.518.41l.555.354a27.234 27.234 0 009.68 3.542c1.683.3 3.386.476 5.095.524 1.701.06 3.404-.027 5.089-.258a49.663 49.663 0 01-9.976-1.263 36.322 36.322 0 01-4.754-1.434c-.392-.138-.764-.309-1.149-.473-.386-.164-.764-.31-1.124-.505l-1.105-.556c-.36-.196-.682-.43-1.029-.631l-.518-.316c-.164-.114-.316-.246-.474-.373l-.972-.801c-.575-.581-1.181-1.124-1.699-1.762a25.302 25.302 0 01-2.841-4.054 37.593 37.593 0 01-2.248-4.476 48.851 48.851 0 01-1.755-4.717z" fill="#2C2A46"/><rect x="280.583" y="649.991" width="404.411" height="258.911" rx="26.002" transform="rotate(15 280.583 649.991)" fill="#0052CC"/><circle cx="317.124" cy="727.366" r="32.641" transform="rotate(15 317.124 727.366)" fill="#FF6E1D"/><circle cx="358.806" cy="738.535" r="32.641" transform="rotate(15 358.806 738.535)" fill="#F6A721"/><path d="M270.602 800.526l133.595 35.797m33.594 9.287l81.76 21.908m-260.475-23.975l52.903 14.176m129.854 34.794l52.903 14.176m-158.71-42.527l81.76 21.908m100.998 27.062l51.835 13.889" stroke="#fff" strokeWidth="13.277" strokeLinecap="round"/><path d="M647.703 867.35a7.56 7.56 0 017.56-7.56h143.945a7.56 7.56 0 017.56 7.56v12.833H647.703V867.35z" fill="#FDBD3E"/><path d="M647.703 880.183h159.065v3.044a7.56 7.56 0 01-7.56 7.56H655.263a7.56 7.56 0 01-7.56-7.56v-3.044z" fill="#F6A721"/><path d="M629.757 898.347a7.56 7.56 0 017.561-7.56h143.944a7.56 7.56 0 017.561 7.56v12.833H629.757v-12.833z" fill="#FDBD3E"/><path d="M629.757 911.18h159.065v3.044a7.56 7.56 0 01-7.56 7.56H637.317a7.56 7.56 0 01-7.56-7.56v-3.044z" fill="#F6A721"/><path d="M596.312 929.345a7.56 7.56 0 017.561-7.561h143.944a7.56 7.56 0 017.561 7.561v12.832H596.312v-12.832z" fill="#FDBD3E"/><path d="M596.312 942.177h159.066v3.044a7.56 7.56 0 01-7.561 7.561H603.873a7.56 7.56 0 01-7.561-7.561v-3.044z" fill="#F6A721"/><path d="M624.046 960.342a7.56 7.56 0 017.561-7.56h143.944a7.56 7.56 0 017.561 7.56v12.833H624.046v-12.833z" fill="#FDBD3E"/><path d="M624.046 973.175h159.066v3.044a7.56 7.56 0 01-7.561 7.56H631.607a7.56 7.56 0 01-7.561-7.56v-3.044z" fill="#F6A721"/><path d="M596.312 991.34a7.56 7.56 0 017.561-7.561h143.944a7.56 7.56 0 017.561 7.561v12.83H596.312v-12.83z" fill="#FDBD3E"/><path d="M596.312 1004.17h159.066v3.05c0 4.17-3.385 7.56-7.561 7.56H603.873a7.564 7.564 0 01-7.561-7.56v-3.05z" fill="#F6A721"/><mask id="path-141-outside-1" maskUnits="userSpaceOnUse" x="392.129" y="318.227" width="17" height="17" fill="#000"><path fill="#fff" d="M392.129 318.227h17v17h-17z"/><path fill-rule="evenodd" clip-rule="evenodd" d="M408.235 324.419c0 .26-.212.472-.472.472h-.472v6.609c.52 0 .944.423.944.944v1.416a.472.472 0 01-.472.472h-14.162a.472.472 0 01-.472-.472v-1.416c0-.521.424-.944.944-.944v-6.609h-.472a.472.472 0 01-.472-.472v-.944c0-.175.096-.335.249-.417l7.081-3.776a.474.474 0 01.445 0l7.081 3.776c.154.082.25.242.25.417v.944zm-14.162 8.025v.944h13.218v-.944h-13.218zm.944-7.553v6.609h.944v-6.609h-.944zm1.888 0v6.609h7.553v-6.609h-3.772a.472.472 0 01.468.472v.472h.472a.472.472 0 010 .944h-.944a.472.472 0 000 .944c.781 0 1.416.636 1.416 1.416 0 .615-.396 1.134-.944 1.33v.559a.473.473 0 01-.944 0v-.472h-.472a.472.472 0 010-.945h.944a.473.473 0 000-.944 1.413 1.413 0 01-.472-2.745v-.559c0-.259.209-.47.467-.472h-3.772zm8.498 0v6.609h.944v-6.609h-.944zm-11.33-1.133v.189h13.218v-.189l-6.609-3.525-6.609 3.525z"/></mask><path fill-rule="evenodd" clip-rule="evenodd" d="M408.235 324.419c0 .26-.212.472-.472.472h-.472v6.609c.52 0 .944.423.944.944v1.416a.472.472 0 01-.472.472h-14.162a.472.472 0 01-.472-.472v-1.416c0-.521.424-.944.944-.944v-6.609h-.472a.472.472 0 01-.472-.472v-.944c0-.175.096-.335.249-.417l7.081-3.776a.474.474 0 01.445 0l7.081 3.776c.154.082.25.242.25.417v.944zm-14.162 8.025v.944h13.218v-.944h-13.218zm.944-7.553v6.609h.944v-6.609h-.944zm1.888 0v6.609h7.553v-6.609h-3.772a.472.472 0 01.468.472v.472h.472a.472.472 0 010 .944h-.944a.472.472 0 000 .944c.781 0 1.416.636 1.416 1.416 0 .615-.396 1.134-.944 1.33v.559a.473.473 0 01-.944 0v-.472h-.472a.472.472 0 010-.945h.944a.473.473 0 000-.944 1.413 1.413 0 01-.472-2.745v-.559c0-.259.209-.47.467-.472h-3.772zm8.498 0v6.609h.944v-6.609h-.944zm-11.33-1.133v.189h13.218v-.189l-6.609-3.525-6.609 3.525z" fill="#fff"/><path d="M407.291 324.891v-.189h-.189v.189h.189zm0 6.609h-.189v.189h.189v-.189zm-13.218 0v.189h.189v-.189h-.189zm0-6.609h.189v-.189h-.189v.189zm-.695-1.833l-.089-.166.089.166zm7.081-3.776l-.088-.167h-.001l.089.167zm.445 0l.089-.167h-.001l-.088.167zm7.081 3.776l.089-.166-.089.166zm-13.912 10.33h-.189v.189h.189v-.189zm0-.944v-.189h-.189v.189h.189zm13.218.944v.189h.189v-.189h-.189zm0-.944h.189v-.189h-.189v.189zm-12.274-.944h-.189v.189h.189v-.189zm0-6.609v-.189h-.189v.189h.189zm.944 6.609v.189h.189v-.189h-.189zm0-6.609h.189v-.189h-.189v.189zm.944 6.609h-.189v.189h.189v-.189zm0-6.609v-.189h-.189v.189h.189zm7.553 6.609v.189h.189v-.189h-.189zm0-6.609h.189v-.189h-.189v.189zm-3.772 0v-.189l-.001.378.001-.189zm.468.944h-.189v.189h.189v-.189zm0 4.634l-.064-.178-.125.044v.134h.189zm-.944.087h.189v-.189h-.189v.189zm0-4.634l.063.178.126-.045v-.133h-.189zm.467-1.031l.002.189-.002-.378v.189zm4.726 6.609h-.189v.189h.189v-.189zm0-6.609v-.189h-.189v.189h.189zm.944 6.609v.189h.189v-.189h-.189zm0-6.609h.189v-.189h-.189v.189zm-12.274-.944h-.189v.189h.189v-.189zm0-.189l-.089-.167-.1.053v.114h.189zm13.218.189v.189h.189v-.189h-.189zm0-.189h.189v-.114l-.1-.053-.089.167zm-6.609-3.525l.089-.166-.089-.048-.089.048.089.166zm7.081 4.847a.661.661 0 00.661-.661h-.378a.283.283 0 01-.283.283v.378zm-.472 0h.472v-.378h-.472v.378zm.189 6.42v-6.609h-.378v6.609h.378zm.944.944c0-.626-.509-1.133-1.133-1.133v.378c.416 0 .755.338.755.755h.378zm0 1.416v-1.416h-.378v1.416h.378zm-.661.661a.661.661 0 00.661-.661h-.378a.283.283 0 01-.283.283v.378zm-14.162 0h14.162v-.378h-14.162v.378zm-.661-.661c0 .365.296.661.661.661v-.378a.283.283 0 01-.283-.283h-.378zm0-1.416v1.416h.378v-1.416h-.378zm1.133-1.133c-.624 0-1.133.507-1.133 1.133h.378c0-.417.339-.755.755-.755v-.378zm-.189-6.42v6.609h.378v-6.609h-.378zm-.283.189h.472v-.378h-.472v.378zm-.661-.661c0 .365.296.661.661.661v-.378a.283.283 0 01-.283-.283h-.378zm0-.944v.944h.378v-.944h-.378zm.349-.583a.662.662 0 00-.349.583h.378c0-.105.058-.201.15-.25l-.179-.333zm7.081-3.777l-7.081 3.777.178.333 7.081-3.776-.178-.334zm.622 0a.663.663 0 00-.621 0l.176.334a.286.286 0 01.268 0l.177-.334zm7.082 3.777l-7.081-3.777-.178.334 7.081 3.776.178-.333zm.35.583a.66.66 0 00-.35-.583l-.178.333c.092.05.15.145.15.25h.378zm0 .944v-.944h-.378v.944h.378zm-14.162 8.969v-.944h-.378v.944h.378zm13.029-.189h-13.218v.378h13.218v-.378zm-.189-.755v.944h.378v-.944h-.378zm-13.029.189h13.218v-.378h-13.218v.378zm1.133-1.133v-6.609h-.378v6.609h.378zm.755-.189h-.944v.378h.944v-.378zm-.189-6.42v6.609h.378v-6.609h-.378zm-.755.189h.944v-.378h-.944v.378zm2.077 6.42v-6.609h-.378v6.609h.378zm3.588-.189h-3.777v.378h3.777v-.378zm3.776 0h-3.776v.378h3.776v-.378zm-.189-6.42v6.609h.378v-6.609h-.378zm-3.583.189h3.772v-.378h-3.772v.378zm.657.283a.661.661 0 00-.655-.661l-.003.378c.154.001.28.128.28.283h.378zm0 .472v-.472h-.378v.472h.378zm.283-.189h-.472v.378h.472v-.378zm.661.661a.661.661 0 00-.661-.661v.378c.156 0 .283.127.283.283h.378zm-.661.661a.661.661 0 00.661-.661h-.378a.283.283 0 01-.283.283v.378zm-.944 0h.944v-.378h-.944v.378zm-.283.283c0-.155.127-.283.283-.283v-.378a.662.662 0 00-.661.661h.378zm.283.283a.283.283 0 01-.283-.283h-.378c0 .364.296.661.661.661v-.378zm1.605 1.605c0-.885-.72-1.605-1.605-1.605v.378a1.23 1.23 0 011.227 1.227h.378zm-1.07 1.508a1.603 1.603 0 001.07-1.508h-.378c0 .531-.342.982-.819 1.152l.127.356zm.126.381v-.559h-.378v.559h.378zm-.661.661a.661.661 0 00.661-.661h-.378a.283.283 0 01-.283.283v.378zm-.661-.661c0 .365.296.661.661.661v-.378a.283.283 0 01-.283-.283h-.378zm0-.472v.472h.378v-.472h-.378zm-.283.189h.472v-.378h-.472v.378zm-.661-.661c0 .364.296.661.661.661v-.378a.283.283 0 01-.283-.283h-.378zm.661-.662a.662.662 0 00-.661.662h.378c0-.157.126-.284.283-.284v-.378zm.944 0h-.944v.378h.944v-.378zm.283-.283a.283.283 0 01-.283.283v.378a.662.662 0 00.661-.661h-.378zm-.283-.283c.156 0 .283.128.283.283h.378a.662.662 0 00-.661-.661v.378zm-1.605-1.605c0 .885.72 1.605 1.605 1.605v-.378c-.677 0-1.227-.55-1.227-1.227h-.378zm1.069-1.507a1.602 1.602 0 00-1.069 1.507h.378c0-.531.341-.981.818-1.151l-.127-.356zm-.125-.381v.559h.378v-.559h-.378zm.654-.661a.66.66 0 00-.654.661h.378c0-.155.125-.282.28-.283l-.004-.378zm-3.77.378h3.772v-.378h-3.772v.378zm8.687 6.42v-6.609h-.378v6.609h.378zm.755-.189h-.944v.378h.944v-.378zm-.189-6.42v6.609h.378v-6.609h-.378zm-.755.189h.944v-.378h-.944v.378zm-11.141-1.133v-.189h-.378v.189h.378zm13.029-.189h-13.218v.378h13.218v-.378zm-.189 0v.189h.378v-.189h-.378zm-6.509-3.358l6.609 3.525.178-.334-6.609-3.524-.178.333zm-6.431 3.525l6.609-3.525-.178-.333-6.609 3.524.178.334z" fill="#fff" mask="url(#path-141-outside-1)"/><mask id="path-143-outside-2" maskUnits="userSpaceOnUse" x="728.548" y="524.245" width="57" height="57" fill="#000"><path fill="#fff" d="M728.548 524.245h57v57h-57z"/><path fill-rule="evenodd" clip-rule="evenodd" d="M784.375 544.09c0 .946-.767 1.714-1.713 1.714h-1.713v23.986a3.43 3.43 0 013.426 3.427v5.14c0 .946-.767 1.713-1.713 1.713h-51.4a1.714 1.714 0 01-1.714-1.713v-5.14a3.43 3.43 0 013.427-3.427v-23.986h-1.713a1.715 1.715 0 01-1.714-1.714v-3.427c0-.633.35-1.213.905-1.511l25.7-13.706a1.72 1.72 0 011.614 0l25.7 13.706c.559.298.908.878.908 1.511v3.427zm-51.4 29.127v3.427h47.974v-3.427h-47.974zm3.427-27.413v23.986h3.426v-23.986h-3.426zm6.853 0v23.986h13.683a1.713 1.713 0 01-1.689-1.713v-1.713h-1.714a1.714 1.714 0 010-3.427h3.427c.946 0 1.713-.771 1.713-1.713 0-.943-.767-1.714-1.713-1.714a5.146 5.146 0 01-5.14-5.14c0-2.23 1.436-4.115 3.427-4.824v-2.029a1.713 1.713 0 013.426 0v1.713h1.714a1.715 1.715 0 010 3.427h-3.427c-.946 0-1.713.771-1.713 1.713 0 .943.767 1.714 1.713 1.714a5.146 5.146 0 015.14 5.14c0 2.231-1.436 4.115-3.427 4.825v2.028c0 .938-.754 1.701-1.689 1.713h13.683v-23.986h-27.414zm30.84 0v23.986h3.427v-23.986h-3.427zm-41.12-4.113v.686h47.974v-.686L756.962 528.9l-23.987 12.791z"/></mask><path fill-rule="evenodd" clip-rule="evenodd" d="M784.375 544.09c0 .946-.767 1.714-1.713 1.714h-1.713v23.986a3.43 3.43 0 013.426 3.427v5.14c0 .946-.767 1.713-1.713 1.713h-51.4a1.714 1.714 0 01-1.714-1.713v-5.14a3.43 3.43 0 013.427-3.427v-23.986h-1.713a1.715 1.715 0 01-1.714-1.714v-3.427c0-.633.35-1.213.905-1.511l25.7-13.706a1.72 1.72 0 011.614 0l25.7 13.706c.559.298.908.878.908 1.511v3.427zm-51.4 29.127v3.427h47.974v-3.427h-47.974zm3.427-27.413v23.986h3.426v-23.986h-3.426zm6.853 0v23.986h13.683a1.713 1.713 0 01-1.689-1.713v-1.713h-1.714a1.714 1.714 0 010-3.427h3.427c.946 0 1.713-.771 1.713-1.713 0-.943-.767-1.714-1.713-1.714a5.146 5.146 0 01-5.14-5.14c0-2.23 1.436-4.115 3.427-4.824v-2.029a1.713 1.713 0 013.426 0v1.713h1.714a1.715 1.715 0 010 3.427h-3.427c-.946 0-1.713.771-1.713 1.713 0 .943.767 1.714 1.713 1.714a5.146 5.146 0 015.14 5.14c0 2.231-1.436 4.115-3.427 4.825v2.028c0 .938-.754 1.701-1.689 1.713h13.683v-23.986h-27.414zm30.84 0v23.986h3.427v-23.986h-3.427zm-41.12-4.113v.686h47.974v-.686L756.962 528.9l-23.987 12.791z" fill="#fff"/><path d="M780.949 545.804v-.686h-.686v.686h.686zm0 23.986h-.686v.686h.686v-.686zm-47.974 0v.686h.686v-.686h-.686zm0-23.986h.686v-.686h-.686v.686zm-2.522-6.652l-.323-.605-.002.001.325.604zm25.7-13.706l-.32-.607-.003.001.323.606zm1.614 0l.323-.606h-.001l-.322.606zm25.7 13.706l.323-.605-.323.605zm-50.492 37.492h-.686v.686h.686v-.686zm0-3.427v-.686h-.686v.686h.686zm47.974 3.427v.686h.686v-.686h-.686zm0-3.427h.686v-.686h-.686v.686zm-44.547-3.427h-.686v.686h.686v-.686zm0-23.986v-.686h-.686v.686h.686zm3.426 23.986v.686h.686v-.686h-.686zm0-23.986h.686v-.686h-.686v.686zm3.427 23.986h-.686v.686h.686v-.686zm0-23.986v-.686h-.686v.686h.686zm13.683 23.986v.686l.009-1.372-.009.686zm-1.689-3.426h.686v-.686h-.686v.686zm0-16.818l.23.646.456-.163v-.483h-.686zm3.426-.316h-.686v.686h.686v-.686zm0 16.819l-.23-.647-.456.163v.484h.686zm-1.689 3.741l-.01-.686.01 1.372v-.686zm13.683 0v.686h.686v-.686h-.686zm0-23.986h.686v-.686h-.686v.686zm3.426 23.986h-.686v.686h.686v-.686zm0-23.986v-.686h-.686v.686h.686zm3.427 23.986v.686h.686v-.686h-.686zm0-23.986h.686v-.686h-.686v.686zm-44.547-3.427h-.686v.686h.686v-.686zm0-.686l-.323-.605-.363.194v.411h.686zm47.974.686v.686h.686v-.686h-.686zm0-.686h.686v-.411l-.364-.194-.322.605zM756.962 528.9l.323-.606-.323-.172-.323.172.323.606zm25.7 17.59a2.4 2.4 0 002.399-2.4h-1.372c0 .567-.46 1.028-1.027 1.028v1.372zm-1.713 0h1.713v-1.372h-1.713v1.372zm.686 23.3v-23.986h-1.372v23.986h1.372zm3.426 3.427a4.116 4.116 0 00-4.112-4.113v1.372a2.744 2.744 0 012.74 2.741h1.372zm0 5.14v-5.14h-1.372v5.14h1.372zm-2.399 2.399a2.399 2.399 0 002.399-2.399h-1.372c0 .567-.46 1.027-1.027 1.027v1.372zm-51.4 0h51.4v-1.372h-51.4v1.372zm-2.4-2.399a2.4 2.4 0 002.4 2.399v-1.372c-.567 0-1.028-.46-1.028-1.027h-1.372zm0-5.14v5.14h1.372v-5.14h-1.372zm4.113-4.113a4.116 4.116 0 00-4.113 4.113h1.372a2.745 2.745 0 012.741-2.741v-1.372zm-.686-23.3v23.986h1.372v-23.986h-1.372zm-1.027.686h1.713v-1.372h-1.713v1.372zm-2.4-2.4a2.4 2.4 0 002.4 2.4v-1.372a1.029 1.029 0 01-1.028-1.028h-1.372zm0-3.427v3.427h1.372v-3.427h-1.372zm1.266-2.115a2.401 2.401 0 00-1.266 2.115h1.372c0-.379.21-.727.544-.906l-.65-1.209zm25.702-13.708l-25.7 13.707.646 1.211 25.7-13.707-.646-1.211zm2.259 0a2.408 2.408 0 00-2.256-.001l.64 1.213c.308-.162.671-.161.973 0l.643-1.212zm25.701 13.707l-25.7-13.707-.646 1.211 25.7 13.707.646-1.211zm1.271 2.116c0-.888-.49-1.699-1.271-2.116l-.646 1.211c.337.179.545.526.545.905h1.372zm0 3.427v-3.427h-1.372v3.427h1.372zm-51.4 32.554v-3.427h-1.372v3.427h1.372zm47.288-.686h-47.974v1.372h47.974v-1.372zm-.686-2.741v3.427h1.372v-3.427h-1.372zm-47.288.686h47.974v-1.372h-47.974v1.372zm4.113-4.113v-23.986h-1.372v23.986h1.372zm2.74-.686h-3.426v1.372h3.426v-1.372zm-.686-23.3v23.986h1.372v-23.986h-1.372zm-2.74.686h3.426v-1.372h-3.426v1.372zm7.539 23.3v-23.986h-1.372v23.986h1.372zm12.997-.686h-13.683v1.372h13.683v-1.372zm-2.375-1.027a2.4 2.4 0 002.366 2.399l.018-1.372a1.027 1.027 0 01-1.012-1.027h-1.372zm0-1.713v1.713h1.372v-1.713h-1.372zm-1.028.686h1.714v-1.372h-1.714v1.372zm-2.399-2.4a2.4 2.4 0 002.399 2.4v-1.372a1.028 1.028 0 01-1.027-1.028h-1.372zm2.399-2.399a2.4 2.4 0 00-2.399 2.399h1.372c0-.566.46-1.027 1.027-1.027v-1.372zm3.427 0h-3.427v1.372h3.427v-1.372zm1.027-1.027a1.03 1.03 0 01-1.027 1.027v1.372a2.402 2.402 0 002.399-2.399h-1.372zm-1.027-1.028a1.03 1.03 0 011.027 1.028h1.372c0-1.321-1.074-2.4-2.399-2.4v1.372zm-5.826-5.826a5.832 5.832 0 005.826 5.826v-1.372a4.46 4.46 0 01-4.454-4.454h-1.372zm3.882-5.471c-2.25.802-3.882 2.936-3.882 5.471h1.372c0-1.926 1.24-3.561 2.971-4.178l-.461-1.293zm-.455-1.382v2.029h1.372v-2.029h-1.372zm2.399-2.399a2.399 2.399 0 00-2.399 2.399h1.372c0-.567.46-1.027 1.027-1.027v-1.372zm2.399 2.399a2.399 2.399 0 00-2.399-2.399v1.372c.567 0 1.027.46 1.027 1.027h1.372zm0 1.713v-1.713h-1.372v1.713h1.372zm1.028-.686h-1.714v1.372h1.714v-1.372zm2.399 2.4a2.4 2.4 0 00-2.399-2.4v1.372c.567 0 1.027.461 1.027 1.028h1.372zm-2.399 2.399a2.4 2.4 0 002.399-2.399h-1.372c0 .567-.46 1.027-1.027 1.027v1.372zm-3.427 0h3.427v-1.372h-3.427v1.372zm-1.027 1.027a1.03 1.03 0 011.027-1.027v-1.372a2.401 2.401 0 00-2.399 2.399h1.372zm1.027 1.028a1.03 1.03 0 01-1.027-1.028h-1.372c0 1.321 1.073 2.4 2.399 2.4v-1.372zm5.826 5.826a5.832 5.832 0 00-5.826-5.826v1.372a4.46 4.46 0 014.454 4.454h1.372zm-3.882 5.471c2.25-.802 3.882-2.936 3.882-5.471h-1.372c0 1.926-1.24 3.562-2.971 4.178l.461 1.293zm.455 1.382v-2.028h-1.372v2.028h1.372zm-2.366 2.399a2.4 2.4 0 002.366-2.399h-1.372c0 .562-.452 1.02-1.013 1.027l.019 1.372zm13.674-1.372h-13.683v1.372h13.683v-1.372zm-.686-23.3v23.986h1.372v-23.986h-1.372zm-13.021.686h13.707v-1.372h-13.707v1.372zm-13.707 0h13.707v-1.372h-13.707v1.372zm31.526 23.3v-23.986h-1.372v23.986h1.372zm2.741-.686h-3.427v1.372h3.427v-1.372zm-.686-23.3v23.986h1.372v-23.986h-1.372zm-2.741.686h3.427v-1.372h-3.427v1.372zm-40.434-4.113v-.686h-1.372v.686h1.372zm47.288-.686h-47.974v1.372h47.974v-1.372zm-.686 0v.686h1.372v-.686h-1.372zm-23.624-12.186l23.987 12.792.645-1.211-23.986-12.792-.646 1.211zm-23.341 12.792l23.987-12.792-.646-1.211-23.987 12.792.646 1.211z" fill="#fff" mask="url(#path-143-outside-2)"/></g><defs><filter id="filter0_d" x="257.811" y="400.125" width="273.246" height="81.452" filterUnits="userSpaceOnUse" color-interpolation-filters="sRGB"><feFlood flood-opacity="0" result="BackgroundImageFix"/><feColorMatrix in="SourceAlpha" values="0 0 0 0 0 0 0 0 0 0 0 0 0 0 0 0 0 0 127 0"/><feOffset dy="1.778"/><feGaussianBlur stdDeviation="5.334"/><feColorMatrix values="0 0 0 0 0.374547 0 0 0 0 0.481553 0 0 0 0 0.601935 0 0 0 0.15 0"/><feBlend in2="BackgroundImageFix" result="effect1_dropShadow"/><feBlend in="SourceGraphic" in2="effect1_dropShadow" result="shape"/></filter><filter id="filter1_d" x="587.206" y="634.26" width="84.624" height="46.976" filterUnits="userSpaceOnUse" color-interpolation-filters="sRGB"><feFlood flood-opacity="0" result="BackgroundImageFix"/><feColorMatrix in="SourceAlpha" values="0 0 0 0 0 0 0 0 0 0 0 0 0 0 0 0 0 0 127 0"/><feOffset dy=".936"/><feGaussianBlur stdDeviation="2.809"/><feColorMatrix values="0 0 0 0 0.374547 0 0 0 0 0.481553 0 0 0 0 0.601935 0 0 0 0.15 0"/><feBlend in2="BackgroundImageFix" result="effect1_dropShadow"/><feBlend in="SourceGraphic" in2="effect1_dropShadow" result="shape"/></filter><filter id="filter2_d" x="366.564" y="479.859" width="84.624" height="46.976" filterUnits="userSpaceOnUse" color-interpolation-filters="sRGB"><feFlood flood-opacity="0" result="BackgroundImageFix"/><feColorMatrix in="SourceAlpha" values="0 0 0 0 0 0 0 0 0 0 0 0 0 0 0 0 0 0 127 0"/><feOffset dy=".936"/><feGaussianBlur stdDeviation="2.809"/><feColorMatrix values="0 0 0 0 0.374547 0 0 0 0 0.481553 0 0 0 0 0.601935 0 0 0 0.15 0"/><feBlend in2="BackgroundImageFix" result="effect1_dropShadow"/><feBlend in="SourceGraphic" in2="effect1_dropShadow" result="shape"/></filter><filter id="filter3_d" x="426.561" y="521.648" width="411.67" height="119.661" filterUnits="userSpaceOnUse" color-interpolation-filters="sRGB"><feFlood flood-opacity="0" result="BackgroundImageFix"/><feColorMatrix in="SourceAlpha" values="0 0 0 0 0 0 0 0 0 0 0 0 0 0 0 0 0 0 127 0"/><feOffset dy="2.345"/><feGaussianBlur stdDeviation="7.034"/><feColorMatrix values="0 0 0 0 0.374547 0 0 0 0 0.481553 0 0 0 0 0.601935 0 0 0 0.15 0"/><feBlend in2="BackgroundImageFix" result="effect1_dropShadow"/><feBlend in="SourceGraphic" in2="effect1_dropShadow" result="shape"/></filter><clipPath id="clip0"><path fill="#fff" d="M0 0h1080v1080H0z"/></clipPath></defs></svg>